solid csg.js
facet normal 0.09801714032956096 0.9951847266721968 0
outer loop
vertex -4.295090322016115 0.21921471959676886 1
vertex -4.099999999999996 0.20000000000000018 1
vertex -4.100000000000001 0.20000000000000018 0
endloop
endfacet
facet normal 0.09801714032956096 0.9951847266721968 0
outer loop
vertex -4.295090322016115 0.21921471959676886 1
vertex -4.100000000000001 0.20000000000000018 0
vertex -4.295090322016127 0.21921471959676986 0
endloop
endfacet
facet normal 0 1 0
outer loop
vertex 4.100000000000001 0.20000000000000018 1
vertex 4.1000000000000085 0.20000000000000018 0
vertex -4.100000000000001 0.20000000000000018 0
endloop
endfacet
facet normal 0 1 0
outer loop
vertex 4.100000000000001 0.20000000000000018 1
vertex -4.100000000000001 0.20000000000000018 0
vertex -4.099999999999996 0.20000000000000018 1
endloop
endfacet
facet normal -0.09801714032956084 0.9951847266721968 0
outer loop
vertex 4.100000000000001 0.20000000000000018 1
vertex 4.2950903220161205 0.21921471959676886 1
vertex 4.2950903220161285 0.21921471959676986 0
endloop
endfacet
facet normal -0.09801714032956084 0.9951847266721968 0
outer loop
vertex 4.100000000000001 0.20000000000000018 1
vertex 4.2950903220161285 0.21921471959676986 0
vertex 4.1000000000000085 0.20000000000000018 0
endloop
endfacet
facet normal -0.2902846772544627 0.9569403357322088 0
outer loop
vertex 4.2950903220161205 0.21921471959676886 1
vertex 4.482683432365091 0.27612046748871455 1
vertex 4.482683432365089 0.27612046748871355 0
endloop
endfacet
facet normal -0.2902846772544627 0.9569403357322088 0
outer loop
vertex 4.2950903220161205 0.21921471959676886 1
vertex 4.482683432365089 0.27612046748871355 0
vertex 4.2950903220161285 0.21921471959676986 0
endloop
endfacet
facet normal -0.4713967368259979 0.8819212643483549 0
outer loop
vertex 4.482683432365091 0.27612046748871455 1
vertex 4.655570233019602 0.3685303876974557 1
vertex 4.655570233019599 0.3685303876974539 0
endloop
endfacet
facet normal -0.4713967368259979 0.8819212643483549 0
outer loop
vertex 4.482683432365091 0.27612046748871455 1
vertex 4.655570233019599 0.3685303876974539 0
vertex 4.482683432365089 0.27612046748871355 0
endloop
endfacet
facet normal -0.6343932841636424 0.7730104533627395 0
outer loop
vertex 4.655570233019602 0.3685303876974557 1
vertex 4.8071067811865476 0.4928932188134528 1
vertex 4.807106781186548 0.4928932188134534 0
endloop
endfacet
facet normal -0.6343932841636424 0.7730104533627395 0
outer loop
vertex 4.655570233019602 0.3685303876974557 1
vertex 4.807106781186548 0.4928932188134534 0
vertex 4.655570233019599 0.3685303876974539 0
endloop
endfacet
facet normal -0.7730104533627391 0.6343932841636428 0
outer loop
vertex 4.8071067811865476 0.4928932188134528 1
vertex 4.931469612302544 0.6444297669803971 1
vertex 4.931469612302544 0.6444297669803964 0
endloop
endfacet
facet normal -0.7730104533627391 0.6343932841636428 0
outer loop
vertex 4.8071067811865476 0.4928932188134528 1
vertex 4.931469612302544 0.6444297669803964 0
vertex 4.807106781186548 0.4928932188134534 0
endloop
endfacet
facet normal -0.881921264348355 0.4713967368259977 0
outer loop
vertex 4.931469612302544 0.6444297669803971 1
vertex 5.023879532511287 0.8173165676349112 1
vertex 5.023879532511287 0.8173165676349113 0
endloop
endfacet
facet normal -0.881921264348355 0.4713967368259977 0
outer loop
vertex 4.931469612302544 0.6444297669803971 1
vertex 5.023879532511287 0.8173165676349113 0
vertex 4.931469612302544 0.6444297669803964 0
endloop
endfacet
facet normal -0.9569403357322079 0.29028467725446544 0
outer loop
vertex 5.023879532511287 0.8173165676349112 1
vertex 5.080785280403229 1.0049096779838664 1
vertex 5.080785280403231 1.0049096779838738 0
endloop
endfacet
facet normal -0.9569403357322079 0.29028467725446544 0
outer loop
vertex 5.023879532511287 0.8173165676349112 1
vertex 5.080785280403231 1.0049096779838738 0
vertex 5.023879532511287 0.8173165676349113 0
endloop
endfacet
facet normal -0.9951847266721968 0.0980171403295604 0
outer loop
vertex 5.080785280403229 1.0049096779838664 1
vertex 5.1 1.200000000000001 1
vertex 5.1 1.2000000000000013 0
endloop
endfacet
facet normal -0.9951847266721968 0.0980171403295604 0
outer loop
vertex 5.080785280403229 1.0049096779838664 1
vertex 5.1 1.2000000000000013 0
vertex 5.080785280403231 1.0049096779838738 0
endloop
endfacet
facet normal -0.9951847266721969 -0.09801714032956074 0
outer loop
vertex 5.1 1.200000000000001 1
vertex 5.08078528040323 1.3950903220161281 1
vertex 5.08078528040323 1.3950903220161297 0
endloop
endfacet
facet normal -0.9951847266721969 -0.09801714032956074 0
outer loop
vertex 5.1 1.200000000000001 1
vertex 5.08078528040323 1.3950903220161297 0
vertex 5.1 1.2000000000000013 0
endloop
endfacet
facet normal -0.9569403357322093 -0.2902846772544611 0
outer loop
vertex 5.08078528040323 1.3950903220161281 1
vertex 5.023879532511287 1.5826834323650911 1
vertex 5.023879532511286 1.5826834323650896 0
endloop
endfacet
facet normal -0.9569403357322093 -0.2902846772544611 0
outer loop
vertex 5.08078528040323 1.3950903220161281 1
vertex 5.023879532511286 1.5826834323650896 0
vertex 5.08078528040323 1.3950903220161297 0
endloop
endfacet
facet normal -0.8819212643483537 -0.47139673682600003 0
outer loop
vertex 5.023879532511287 1.5826834323650911 1
vertex 4.931469612302548 1.755570233019594 1
vertex 4.931469612302547 1.7555702330196 0
endloop
endfacet
facet normal -0.8819212643483537 -0.47139673682600003 0
outer loop
vertex 5.023879532511287 1.5826834323650911 1
vertex 4.931469612302547 1.7555702330196 0
vertex 5.023879532511286 1.5826834323650896 0
endloop
endfacet
facet normal -0.7730104533627387 -0.6343932841636434 0
outer loop
vertex 4.931469612302548 1.755570233019594 1
vertex 4.807106781186543 1.9071067811865532 1
vertex 4.80710678118655 1.907106781186549 0
endloop
endfacet
facet normal -0.7730104533627387 -0.6343932841636434 0
outer loop
vertex 4.931469612302548 1.755570233019594 1
vertex 4.80710678118655 1.907106781186549 0
vertex 4.931469612302547 1.7555702330196 0
endloop
endfacet
facet normal -0.634393284163645 -0.7730104533627374 0
outer loop
vertex 4.807106781186543 1.9071067811865532 1
vertex 4.655570233019599 2.0314696123025446 1
vertex 4.6555702330196 2.031469612302544 0
endloop
endfacet
facet normal -0.634393284163645 -0.7730104533627374 0
outer loop
vertex 4.807106781186543 1.9071067811865532 1
vertex 4.6555702330196 2.031469612302544 0
vertex 4.80710678118655 1.907106781186549 0
endloop
endfacet
facet normal -0.4713967368259978 -0.8819212643483549 0
outer loop
vertex 4.655570233019599 2.0314696123025446 1
vertex 4.482683432365085 2.1238795325112894 1
vertex 4.48268343236509 2.123879532511288 0
endloop
endfacet
facet normal -0.4713967368259978 -0.8819212643483549 0
outer loop
vertex 4.655570233019599 2.0314696123025446 1
vertex 4.48268343236509 2.123879532511288 0
vertex 4.6555702330196 2.031469612302544 0
endloop
endfacet
facet normal -0.2902846772544611 -0.9569403357322093 0
outer loop
vertex 4.482683432365085 2.1238795325112894 1
vertex 4.295090322016131 2.180785280403231 1
vertex 4.295090322016131 2.180785280403231 0
endloop
endfacet
facet normal -0.2902846772544611 -0.9569403357322093 0
outer loop
vertex 4.482683432365085 2.1238795325112894 1
vertex 4.295090322016131 2.180785280403231 0
vertex 4.48268343236509 2.123879532511288 0
endloop
endfacet
facet normal -0.09801714032956084 -0.9951847266721968 0
outer loop
vertex 4.295090322016131 2.180785280403231 1
vertex 4.100000000000002 2.2 1
vertex 4.100000000000005 2.2 0
endloop
endfacet
facet normal -0.09801714032956084 -0.9951847266721968 0
outer loop
vertex 4.295090322016131 2.180785280403231 1
vertex 4.100000000000005 2.2 0
vertex 4.295090322016131 2.180785280403231 0
endloop
endfacet
facet normal 0 -1 0
outer loop
vertex 4.100000000000005 2.2 0
vertex 4.100000000000002 2.2 1
vertex -4.100000000000002 2.2 1
endloop
endfacet
facet normal 0 -1 0
outer loop
vertex 4.100000000000005 2.2 0
vertex -4.100000000000002 2.2 1
vertex -4.100000000000003 2.2 0
endloop
endfacet
facet normal 0.09801714032956084 -0.9951847266721968 0
outer loop
vertex -4.100000000000002 2.2 1
vertex -4.295090322016128 2.180785280403231 1
vertex -4.295090322016126 2.180785280403231 0
endloop
endfacet
facet normal 0.09801714032956084 -0.9951847266721968 0
outer loop
vertex -4.100000000000002 2.2 1
vertex -4.295090322016126 2.180785280403231 0
vertex -4.100000000000003 2.2 0
endloop
endfacet
facet normal 0.2902846772544611 -0.9569403357322093 0
outer loop
vertex -4.295090322016128 2.180785280403231 1
vertex -4.482683432365084 2.1238795325112894 1
vertex -4.482683432365087 2.123879532511288 0
endloop
endfacet
facet normal 0.2902846772544611 -0.9569403357322093 0
outer loop
vertex -4.295090322016128 2.180785280403231 1
vertex -4.482683432365087 2.123879532511288 0
vertex -4.295090322016126 2.180785280403231 0
endloop
endfacet
facet normal 0.4713967368259978 -0.8819212643483549 0
outer loop
vertex -4.482683432365084 2.1238795325112894 1
vertex -4.655570233019603 2.0314696123025446 1
vertex -4.655570233019603 2.031469612302544 0
endloop
endfacet
facet normal 0.4713967368259978 -0.8819212643483549 0
outer loop
vertex -4.482683432365084 2.1238795325112894 1
vertex -4.655570233019603 2.031469612302544 0
vertex -4.482683432365087 2.123879532511288 0
endloop
endfacet
facet normal 0.634393284163645 -0.7730104533627374 0
outer loop
vertex -4.655570233019603 2.0314696123025446 1
vertex -4.807106781186541 1.9071067811865532 1
vertex -4.807106781186546 1.907106781186549 0
endloop
endfacet
facet normal 0.634393284163645 -0.7730104533627374 0
outer loop
vertex -4.655570233019603 2.0314696123025446 1
vertex -4.807106781186546 1.907106781186549 0
vertex -4.655570233019603 2.031469612302544 0
endloop
endfacet
facet normal 0.7730104533627387 -0.6343932841636434 0
outer loop
vertex -4.807106781186541 1.9071067811865532 1
vertex -4.93146961230255 1.755570233019594 1
vertex -4.931469612302545 1.7555702330196 0
endloop
endfacet
facet normal 0.7730104533627387 -0.6343932841636434 0
outer loop
vertex -4.807106781186541 1.9071067811865532 1
vertex -4.931469612302545 1.7555702330196 0
vertex -4.807106781186546 1.907106781186549 0
endloop
endfacet
facet normal 0.8819212643483537 -0.47139673682600003 0
outer loop
vertex -4.93146961230255 1.755570233019594 1
vertex -5.023879532511287 1.5826834323650911 1
vertex -5.023879532511287 1.5826834323650896 0
endloop
endfacet
facet normal 0.8819212643483537 -0.47139673682600003 0
outer loop
vertex -4.93146961230255 1.755570233019594 1
vertex -5.023879532511287 1.5826834323650896 0
vertex -4.931469612302545 1.7555702330196 0
endloop
endfacet
facet normal 0.956940335732209 -0.2902846772544618 0
outer loop
vertex -5.023879532511287 1.5826834323650911 1
vertex -5.08078528040323 1.3950903220161281 1
vertex -5.08078528040323 1.3950903220161297 0
endloop
endfacet
facet normal 0.956940335732209 -0.2902846772544618 0
outer loop
vertex -5.023879532511287 1.5826834323650911 1
vertex -5.08078528040323 1.3950903220161297 0
vertex -5.023879532511287 1.5826834323650896 0
endloop
endfacet
facet normal 0.9951847266721968 -0.09801714032956062 0
outer loop
vertex -5.08078528040323 1.3950903220161281 1
vertex -5.1000000000000005 1.200000000000001 1
vertex -5.1 1.2000000000000013 0
endloop
endfacet
facet normal 0.9951847266721968 -0.09801714032956062 0
outer loop
vertex -5.08078528040323 1.3950903220161281 1
vertex -5.1 1.2000000000000013 0
vertex -5.08078528040323 1.3950903220161297 0
endloop
endfacet
facet normal 0.9951847266721969 0.09801714032956052 0
outer loop
vertex -5.1000000000000005 1.200000000000001 1
vertex -5.080785280403232 1.0049096779838664 1
vertex -5.080785280403231 1.0049096779838738 0
endloop
endfacet
facet normal 0.9951847266721969 0.09801714032956052 0
outer loop
vertex -5.1000000000000005 1.200000000000001 1
vertex -5.080785280403231 1.0049096779838738 0
vertex -5.1 1.2000000000000013 0
endloop
endfacet
facet normal 0.956940335732209 0.2902846772544618 0
outer loop
vertex -5.080785280403232 1.0049096779838664 1
vertex -5.0238795325112875 0.8173165676349112 1
vertex -5.0238795325112875 0.8173165676349113 0
endloop
endfacet
facet normal 0.956940335732209 0.2902846772544618 0
outer loop
vertex -5.080785280403232 1.0049096779838664 1
vertex -5.0238795325112875 0.8173165676349113 0
vertex -5.080785280403231 1.0049096779838738 0
endloop
endfacet
facet normal 0.8819212643483556 0.4713967368259965 0
outer loop
vertex -5.0238795325112875 0.8173165676349112 1
vertex -4.931469612302545 0.6444297669803971 1
vertex -4.931469612302544 0.6444297669803964 0
endloop
endfacet
facet normal 0.8819212643483556 0.4713967368259965 0
outer loop
vertex -5.0238795325112875 0.8173165676349112 1
vertex -4.931469612302544 0.6444297669803964 0
vertex -5.0238795325112875 0.8173165676349113 0
endloop
endfacet
facet normal 0.773010453362737 0.6343932841636455 0
outer loop
vertex -4.931469612302545 0.6444297669803971 1
vertex -4.8071067811865476 0.4928932188134528 1
vertex -4.807106781186548 0.4928932188134534 0
endloop
endfacet
facet normal 0.773010453362737 0.6343932841636455 0
outer loop
vertex -4.931469612302545 0.6444297669803971 1
vertex -4.807106781186548 0.4928932188134534 0
vertex -4.931469612302544 0.6444297669803964 0
endloop
endfacet
facet normal 0.6343932841636446 0.7730104533627378 0
outer loop
vertex -4.8071067811865476 0.4928932188134528 1
vertex -4.655570233019601 0.3685303876974557 1
vertex -4.6555702330196 0.3685303876974539 0
endloop
endfacet
facet normal 0.6343932841636446 0.7730104533627378 0
outer loop
vertex -4.8071067811865476 0.4928932188134528 1
vertex -4.6555702330196 0.3685303876974539 0
vertex -4.807106781186548 0.4928932188134534 0
endloop
endfacet
facet normal 0.47139673682599836 0.8819212643483546 0
outer loop
vertex -4.655570233019601 0.3685303876974557 1
vertex -4.482683432365091 0.27612046748871455 1
vertex -4.48268343236509 0.27612046748871355 0
endloop
endfacet
facet normal 0.47139673682599836 0.8819212643483546 0
outer loop
vertex -4.655570233019601 0.3685303876974557 1
vertex -4.48268343236509 0.27612046748871355 0
vertex -4.6555702330196 0.3685303876974539 0
endloop
endfacet
facet normal 0.2902846772544627 0.9569403357322088 0
outer loop
vertex -4.482683432365091 0.27612046748871455 1
vertex -4.295090322016115 0.21921471959676886 1
vertex -4.295090322016127 0.21921471959676986 0
endloop
endfacet
facet normal 0.2902846772544627 0.9569403357322088 0
outer loop
vertex -4.482683432365091 0.27612046748871455 1
vertex -4.295090322016127 0.21921471959676986 0
vertex -4.48268343236509 0.27612046748871355 0
endloop
endfacet
facet normal 0 0 1
outer loop
vertex 41.25 -9 1
vertex 41.25 -5 1
vertex -41.25 -5 1
endloop
endfacet
facet normal 0 0 1
outer loop
vertex 41.25 -9 1
vertex -41.25 -5 1
vertex -41.25 -9 1
endloop
endfacet
facet normal 0 0 1
outer loop
vertex 34.75 -5 1
vertex 34.75 -4 1
vertex -34.75 -4 1
endloop
endfacet
facet normal 0 0 1
outer loop
vertex 34.75 -5 1
vertex -34.75 -4 1
vertex -34.75 -5 1
endloop
endfacet
facet normal 0 0 1
outer loop
vertex 36.25 -4 1
vertex 36.25 0.20000000000000018 1
vertex -36.25 0.20000000000000018 1
endloop
endfacet
facet normal 0 0 1
outer loop
vertex 36.25 -4 1
vertex -36.25 0.20000000000000018 1
vertex -36.25 -4 1
endloop
endfacet
facet normal 0 0 1
outer loop
vertex -4.099999999999996 0.20000000000000018 1
vertex -4.295090322016115 0.21921471959676886 1
vertex -36.25 0.21921471959676886 1
endloop
endfacet
facet normal 0 0 1
outer loop
vertex -4.099999999999996 0.20000000000000018 1
vertex -36.25 0.21921471959676886 1
vertex -36.25 0.20000000000000018 1
endloop
endfacet
facet normal 0 0 1
outer loop
vertex 36.25 0.20000000000000018 1
vertex 36.25 0.21921471959676886 1
vertex 4.2950903220161205 0.21921471959676886 1
endloop
endfacet
facet normal 0 0 1
outer loop
vertex 36.25 0.20000000000000018 1
vertex 4.2950903220161205 0.21921471959676886 1
vertex 4.100000000000001 0.20000000000000018 1
endloop
endfacet
facet normal 0 0 1
outer loop
vertex -4.295090322016115 0.21921471959676886 1
vertex -4.482683432365091 0.27612046748871455 1
vertex -36.25 0.27612046748871455 1
endloop
endfacet
facet normal 0 0 1
outer loop
vertex -4.295090322016115 0.21921471959676886 1
vertex -36.25 0.27612046748871455 1
vertex -36.25 0.21921471959676886 1
endloop
endfacet
facet normal 0 0 1
outer loop
vertex 36.25 0.21921471959676886 1
vertex 36.25 0.27612046748871455 1
vertex 4.482683432365091 0.27612046748871455 1
endloop
endfacet
facet normal 0 0 1
outer loop
vertex 36.25 0.21921471959676886 1
vertex 4.482683432365091 0.27612046748871455 1
vertex 4.2950903220161205 0.21921471959676886 1
endloop
endfacet
facet normal 0 0 1
outer loop
vertex -4.482683432365091 0.27612046748871455 1
vertex -4.655570233019601 0.3685303876974557 1
vertex -36.25 0.3685303876974557 1
endloop
endfacet
facet normal 0 0 1
outer loop
vertex -4.482683432365091 0.27612046748871455 1
vertex -36.25 0.3685303876974557 1
vertex -36.25 0.27612046748871455 1
endloop
endfacet
facet normal 0 0 1
outer loop
vertex 36.25 0.27612046748871455 1
vertex 36.25 0.3685303876974557 1
vertex 4.655570233019602 0.3685303876974557 1
endloop
endfacet
facet normal 0 0 1
outer loop
vertex 36.25 0.27612046748871455 1
vertex 4.655570233019602 0.3685303876974557 1
vertex 4.482683432365091 0.27612046748871455 1
endloop
endfacet
facet normal 0 0 1
outer loop
vertex -4.655570233019601 0.3685303876974557 1
vertex -4.8071067811865476 0.4928932188134528 1
vertex -36.25 0.4928932188134528 1
endloop
endfacet
facet normal 0 0 1
outer loop
vertex -4.655570233019601 0.3685303876974557 1
vertex -36.25 0.4928932188134528 1
vertex -36.25 0.3685303876974557 1
endloop
endfacet
facet normal 0 0 1
outer loop
vertex 36.25 0.3685303876974557 1
vertex 36.25 0.4928932188134528 1
vertex 4.8071067811865476 0.4928932188134528 1
endloop
endfacet
facet normal 0 0 1
outer loop
vertex 36.25 0.3685303876974557 1
vertex 4.8071067811865476 0.4928932188134528 1
vertex 4.655570233019602 0.3685303876974557 1
endloop
endfacet
facet normal 0 0 1
outer loop
vertex -4.8071067811865476 0.4928932188134528 1
vertex -4.931469612302545 0.6444297669803971 1
vertex -36.25 0.6444297669803971 1
endloop
endfacet
facet normal 0 0 1
outer loop
vertex -4.8071067811865476 0.4928932188134528 1
vertex -36.25 0.6444297669803971 1
vertex -36.25 0.4928932188134528 1
endloop
endfacet
facet normal 0 0 1
outer loop
vertex 36.25 0.4928932188134528 1
vertex 36.25 0.6444297669803971 1
vertex 4.931469612302544 0.6444297669803971 1
endloop
endfacet
facet normal 0 0 1
outer loop
vertex 36.25 0.4928932188134528 1
vertex 4.931469612302544 0.6444297669803971 1
vertex 4.8071067811865476 0.4928932188134528 1
endloop
endfacet
facet normal 0 0 1
outer loop
vertex -4.931469612302545 0.6444297669803971 1
vertex -5.0238795325112875 0.8173165676349112 1
vertex -36.25 0.8173165676349112 1
endloop
endfacet
facet normal 0 0 1
outer loop
vertex -4.931469612302545 0.6444297669803971 1
vertex -36.25 0.8173165676349112 1
vertex -36.25 0.6444297669803971 1
endloop
endfacet
facet normal 0 0 1
outer loop
vertex 36.25 0.6444297669803971 1
vertex 36.25 0.8173165676349112 1
vertex 5.023879532511287 0.8173165676349112 1
endloop
endfacet
facet normal 0 0 1
outer loop
vertex 36.25 0.6444297669803971 1
vertex 5.023879532511287 0.8173165676349112 1
vertex 4.931469612302544 0.6444297669803971 1
endloop
endfacet
facet normal 0 0 1
outer loop
vertex -5.0238795325112875 0.8173165676349112 1
vertex -5.080785280403232 1.0049096779838664 1
vertex -36.25 1.0049096779838664 1
endloop
endfacet
facet normal 0 0 1
outer loop
vertex -5.0238795325112875 0.8173165676349112 1
vertex -36.25 1.0049096779838664 1
vertex -36.25 0.8173165676349112 1
endloop
endfacet
facet normal 0 0 1
outer loop
vertex 36.25 0.8173165676349112 1
vertex 36.25 1.0049096779838664 1
vertex 5.080785280403229 1.0049096779838664 1
endloop
endfacet
facet normal 0 0 1
outer loop
vertex 36.25 0.8173165676349112 1
vertex 5.080785280403229 1.0049096779838664 1
vertex 5.023879532511287 0.8173165676349112 1
endloop
endfacet
facet normal 0 0 1
outer loop
vertex -5.080785280403232 1.0049096779838664 1
vertex -5.1000000000000005 1.200000000000001 1
vertex -36.25 1.200000000000001 1
endloop
endfacet
facet normal 0 0 1
outer loop
vertex -5.080785280403232 1.0049096779838664 1
vertex -36.25 1.200000000000001 1
vertex -36.25 1.0049096779838664 1
endloop
endfacet
facet normal 0 0 1
outer loop
vertex 36.25 1.0049096779838664 1
vertex 36.25 1.200000000000001 1
vertex 5.1 1.200000000000001 1
endloop
endfacet
facet normal 0 0 1
outer loop
vertex 36.25 1.0049096779838664 1
vertex 5.1 1.200000000000001 1
vertex 5.080785280403229 1.0049096779838664 1
endloop
endfacet
facet normal 0 0 1
outer loop
vertex -5.1000000000000005 1.200000000000001 1
vertex -5.08078528040323 1.3950903220161281 1
vertex -36.25 1.3950903220161281 1
endloop
endfacet
facet normal 0 0 1
outer loop
vertex -5.1000000000000005 1.200000000000001 1
vertex -36.25 1.3950903220161281 1
vertex -36.25 1.200000000000001 1
endloop
endfacet
facet normal 0 0 1
outer loop
vertex 36.25 1.200000000000001 1
vertex 36.25 1.3950903220161281 1
vertex 5.08078528040323 1.3950903220161281 1
endloop
endfacet
facet normal 0 0 1
outer loop
vertex 36.25 1.200000000000001 1
vertex 5.08078528040323 1.3950903220161281 1
vertex 5.1 1.200000000000001 1
endloop
endfacet
facet normal 0 0 1
outer loop
vertex -5.08078528040323 1.3950903220161281 1
vertex -5.023879532511287 1.5826834323650911 1
vertex -36.25 1.5826834323650911 1
endloop
endfacet
facet normal 0 0 1
outer loop
vertex -5.08078528040323 1.3950903220161281 1
vertex -36.25 1.5826834323650911 1
vertex -36.25 1.3950903220161281 1
endloop
endfacet
facet normal 0 0 1
outer loop
vertex 36.25 1.3950903220161281 1
vertex 36.25 1.5826834323650911 1
vertex 5.023879532511287 1.5826834323650911 1
endloop
endfacet
facet normal 0 0 1
outer loop
vertex 36.25 1.3950903220161281 1
vertex 5.023879532511287 1.5826834323650911 1
vertex 5.08078528040323 1.3950903220161281 1
endloop
endfacet
facet normal 0 0 1
outer loop
vertex -5.023879532511287 1.5826834323650911 1
vertex -4.93146961230255 1.755570233019594 1
vertex -36.25 1.755570233019594 1
endloop
endfacet
facet normal 0 0 1
outer loop
vertex -5.023879532511287 1.5826834323650911 1
vertex -36.25 1.755570233019594 1
vertex -36.25 1.5826834323650911 1
endloop
endfacet
facet normal 0 0 1
outer loop
vertex 36.25 1.5826834323650911 1
vertex 36.25 1.755570233019594 1
vertex 4.931469612302548 1.755570233019594 1
endloop
endfacet
facet normal 0 0 1
outer loop
vertex 36.25 1.5826834323650911 1
vertex 4.931469612302548 1.755570233019594 1
vertex 5.023879532511287 1.5826834323650911 1
endloop
endfacet
facet normal 0 0 1
outer loop
vertex -4.93146961230255 1.755570233019594 1
vertex -4.807106781186541 1.9071067811865532 1
vertex -36.25 1.9071067811865532 1
endloop
endfacet
facet normal 0 0 1
outer loop
vertex -4.93146961230255 1.755570233019594 1
vertex -36.25 1.9071067811865532 1
vertex -36.25 1.755570233019594 1
endloop
endfacet
facet normal 0 0 1
outer loop
vertex 36.25 1.755570233019594 1
vertex 36.25 1.9071067811865532 1
vertex 4.807106781186543 1.9071067811865532 1
endloop
endfacet
facet normal 0 0 1
outer loop
vertex 36.25 1.755570233019594 1
vertex 4.807106781186543 1.9071067811865532 1
vertex 4.931469612302548 1.755570233019594 1
endloop
endfacet
facet normal 0 0 1
outer loop
vertex -4.807106781186541 1.9071067811865532 1
vertex -4.655570233019603 2.0314696123025446 1
vertex -36.25 2.0314696123025446 1
endloop
endfacet
facet normal 0 0 1
outer loop
vertex -4.807106781186541 1.9071067811865532 1
vertex -36.25 2.0314696123025446 1
vertex -36.25 1.9071067811865532 1
endloop
endfacet
facet normal 0 0 1
outer loop
vertex 36.25 1.9071067811865532 1
vertex 36.25 2.0314696123025446 1
vertex 4.655570233019599 2.0314696123025446 1
endloop
endfacet
facet normal 0 0 1
outer loop
vertex 36.25 1.9071067811865532 1
vertex 4.655570233019599 2.0314696123025446 1
vertex 4.807106781186543 1.9071067811865532 1
endloop
endfacet
facet normal 0 0 1
outer loop
vertex -4.655570233019603 2.0314696123025446 1
vertex -4.482683432365084 2.1238795325112894 1
vertex -36.25 2.1238795325112894 1
endloop
endfacet
facet normal 0 0 1
outer loop
vertex -4.655570233019603 2.0314696123025446 1
vertex -36.25 2.1238795325112894 1
vertex -36.25 2.0314696123025446 1
endloop
endfacet
facet normal 0 0 1
outer loop
vertex 36.25 2.0314696123025446 1
vertex 36.25 2.1238795325112894 1
vertex 4.482683432365085 2.1238795325112894 1
endloop
endfacet
facet normal 0 0 1
outer loop
vertex 36.25 2.0314696123025446 1
vertex 4.482683432365085 2.1238795325112894 1
vertex 4.655570233019599 2.0314696123025446 1
endloop
endfacet
facet normal 0 0 1
outer loop
vertex -4.482683432365084 2.1238795325112894 1
vertex -4.295090322016128 2.180785280403231 1
vertex -36.25 2.180785280403231 1
endloop
endfacet
facet normal 0 0 1
outer loop
vertex -4.482683432365084 2.1238795325112894 1
vertex -36.25 2.180785280403231 1
vertex -36.25 2.1238795325112894 1
endloop
endfacet
facet normal 0 0 1
outer loop
vertex 36.25 2.1238795325112894 1
vertex 36.25 2.180785280403231 1
vertex 4.295090322016131 2.180785280403231 1
endloop
endfacet
facet normal 0 0 1
outer loop
vertex 36.25 2.1238795325112894 1
vertex 4.295090322016131 2.180785280403231 1
vertex 4.482683432365085 2.1238795325112894 1
endloop
endfacet
facet normal 0 0 1
outer loop
vertex -4.295090322016128 2.180785280403231 1
vertex -4.100000000000002 2.2 1
vertex -36.25 2.2 1
endloop
endfacet
facet normal 0 0 1
outer loop
vertex -4.295090322016128 2.180785280403231 1
vertex -36.25 2.2 1
vertex -36.25 2.180785280403231 1
endloop
endfacet
facet normal 0 0 1
outer loop
vertex 36.25 2.180785280403231 1
vertex 36.25 2.2 1
vertex 4.100000000000002 2.2 1
endloop
endfacet
facet normal 0 0 1
outer loop
vertex 36.25 2.180785280403231 1
vertex 4.100000000000002 2.2 1
vertex 4.295090322016131 2.180785280403231 1
endloop
endfacet
facet normal 0 0 1
outer loop
vertex 36.25 2.2 1
vertex 36.25 4 1
vertex -36.25 4 1
endloop
endfacet
facet normal 0 0 1
outer loop
vertex 36.25 2.2 1
vertex -36.25 4 1
vertex -36.25 2.2 1
endloop
endfacet
facet normal 0 0 1
outer loop
vertex -37.25 -5 1
vertex -37.25 5 1
vertex -41.25 5 1
endloop
endfacet
facet normal 0 0 1
outer loop
vertex -37.25 -5 1
vertex -41.25 5 1
vertex -41.25 -5 1
endloop
endfacet
facet normal 0 0 1
outer loop
vertex 26.25 4 1
vertex 26.25 5 1
vertex -26.249999999999993 5 1
endloop
endfacet
facet normal 0 0 1
outer loop
vertex 26.25 4 1
vertex -26.249999999999993 5 1
vertex -26.25 4 1
endloop
endfacet
facet normal 0 0 1
outer loop
vertex 41.25 -5 1
vertex 41.25 5 1
vertex 37.25 5 1
endloop
endfacet
facet normal 0 0 1
outer loop
vertex 41.25 -5 1
vertex 37.25 5 1
vertex 37.25 -5 1
endloop
endfacet
facet normal 0 0 1
outer loop
vertex 41.25 5 1
vertex 41.25 9 1
vertex -41.25 9 1
endloop
endfacet
facet normal 0 0 1
outer loop
vertex 41.25 5 1
vertex -41.25 9 1
vertex -41.25 5 1
endloop
endfacet
facet normal 0 0 1
outer loop
vertex -34.75 -5 30
vertex -34.75 -4 30
vertex -37.25 -4 30
endloop
endfacet
facet normal 0 0 1
outer loop
vertex -34.75 -5 30
vertex -37.25 -4 30
vertex -37.25 -5 30
endloop
endfacet
facet normal 0 0 1
outer loop
vertex 37.25 -5 30
vertex 37.25 -4 30
vertex 34.75 -4 30
endloop
endfacet
facet normal 0 0 1
outer loop
vertex 37.25 -5 30
vertex 34.75 -4 30
vertex 34.75 -5 30
endloop
endfacet
facet normal 0 0 1
outer loop
vertex -36.25 -4 30
vertex -36.25 4 30
vertex -37.25 4 30
endloop
endfacet
facet normal 0 0 1
outer loop
vertex -36.25 -4 30
vertex -37.25 4 30
vertex -37.25 -4 30
endloop
endfacet
facet normal 0 0 1
outer loop
vertex 37.25 -4 30
vertex 37.25 4 30
vertex 36.25 4 30
endloop
endfacet
facet normal 0 0 1
outer loop
vertex 37.25 -4 30
vertex 36.25 4 30
vertex 36.25 -4 30
endloop
endfacet
facet normal 0 0 1
outer loop
vertex -26.25 4 30
vertex -26.25 5 30
vertex -37.25 5 30
endloop
endfacet
facet normal 0 0 1
outer loop
vertex -26.25 4 30
vertex -37.25 5 30
vertex -37.25 4 30
endloop
endfacet
facet normal 0 0 1
outer loop
vertex 37.25 4 30
vertex 37.25 5 30
vertex 26.25 5 30
endloop
endfacet
facet normal 0 0 1
outer loop
vertex 37.25 4 30
vertex 26.25 5 30
vertex 26.25 4 30
endloop
endfacet
facet normal -1 0 0
outer loop
vertex -37.25 -5 1
vertex -37.25 -5 30
vertex -37.25 5 30
endloop
endfacet
facet normal -1 0 0
outer loop
vertex -37.25 -5 1
vertex -37.25 5 30
vertex -37.25 5 1
endloop
endfacet
facet normal 1 0 0
outer loop
vertex 37.25 5 1
vertex 37.25 5 30
vertex 37.25 -5 30
endloop
endfacet
facet normal 1 0 0
outer loop
vertex 37.25 5 1
vertex 37.25 -5 30
vertex 37.25 -5 1
endloop
endfacet
facet normal 0 -1 0
outer loop
vertex -34.75 -5 1
vertex -34.75 -5 30
vertex -37.25 -5 30
endloop
endfacet
facet normal 0 -1 0
outer loop
vertex -34.75 -5 1
vertex -37.25 -5 30
vertex -37.25 -5 1
endloop
endfacet
facet normal 0 -1 0
outer loop
vertex 37.25 -5 1
vertex 37.25 -5 30
vertex 34.75 -5 30
endloop
endfacet
facet normal 0 -1 0
outer loop
vertex 37.25 -5 1
vertex 34.75 -5 30
vertex 34.75 -5 1
endloop
endfacet
facet normal 0 1 0
outer loop
vertex -26.25 5 30
vertex -26.249999999999993 5 1
vertex -37.25 5 1
endloop
endfacet
facet normal 0 1 0
outer loop
vertex -26.25 5 30
vertex -37.25 5 1
vertex -37.25 5 30
endloop
endfacet
facet normal 0 1 0
outer loop
vertex 37.25 5 30
vertex 37.25 5 1
vertex 26.25 5 1
endloop
endfacet
facet normal 0 1 0
outer loop
vertex 37.25 5 30
vertex 26.25 5 1
vertex 26.25 5 30
endloop
endfacet
facet normal 1 0 0
outer loop
vertex -36.25 4 1
vertex -36.25 4 30
vertex -36.25 -4 30
endloop
endfacet
facet normal 1 0 0
outer loop
vertex -36.25 4 1
vertex -36.25 -4 30
vertex -36.25 -4 1
endloop
endfacet
facet normal -1 0 0
outer loop
vertex 36.25 -4 30
vertex 36.25 4 30
vertex 36.25 4 1
endloop
endfacet
facet normal -1 0 0
outer loop
vertex 36.25 -4 30
vertex 36.25 4 1
vertex 36.25 -4 1
endloop
endfacet
facet normal 0 1 0
outer loop
vertex -34.75 -4 30
vertex -34.75 -4 1
vertex -36.25 -4 1
endloop
endfacet
facet normal 0 1 0
outer loop
vertex -34.75 -4 30
vertex -36.25 -4 1
vertex -36.25 -4 30
endloop
endfacet
facet normal 0 1 0
outer loop
vertex 36.25 -4 30
vertex 36.25 -4 1
vertex 34.75 -4 1
endloop
endfacet
facet normal 0 1 0
outer loop
vertex 36.25 -4 30
vertex 34.75 -4 1
vertex 34.75 -4 30
endloop
endfacet
facet normal 0 -1 0
outer loop
vertex -26.25 4 1
vertex -26.25 4 30
vertex -36.25 4 30
endloop
endfacet
facet normal 0 -1 0
outer loop
vertex -26.25 4 1
vertex -36.25 4 30
vertex -36.25 4 1
endloop
endfacet
facet normal 0 -1 0
outer loop
vertex 36.25 4 1
vertex 36.25 4 30
vertex 26.25 4 30
endloop
endfacet
facet normal 0 -1 0
outer loop
vertex 36.25 4 1
vertex 26.25 4 30
vertex 26.25 4 1
endloop
endfacet
facet normal 1 0 0
outer loop
vertex -34.75 -4 1
vertex -34.75 -4 30
vertex -34.75 -5 30
endloop
endfacet
facet normal 1 0 0
outer loop
vertex -34.75 -4 1
vertex -34.75 -5 30
vertex -34.75 -5 1
endloop
endfacet
facet normal -1 0 0
outer loop
vertex 34.75 -5 30
vertex 34.75 -4 30
vertex 34.75 -4 1
endloop
endfacet
facet normal -1 0 0
outer loop
vertex 34.75 -5 30
vertex 34.75 -4 1
vertex 34.75 -5 1
endloop
endfacet
facet normal 1 0 0
outer loop
vertex -26.249999999999993 5 1
vertex -26.25 5 30
vertex -26.25 4 30
endloop
endfacet
facet normal 1 0 0
outer loop
vertex -26.249999999999993 5 1
vertex -26.25 4 30
vertex -26.25 4 1
endloop
endfacet
facet normal -1 0 0
outer loop
vertex 26.25 4 30
vertex 26.25 5 30
vertex 26.25 5 1
endloop
endfacet
facet normal -1 0 0
outer loop
vertex 26.25 4 30
vertex 26.25 5 1
vertex 26.25 4 1
endloop
endfacet
facet normal 0 -1 0
outer loop
vertex -41.25 -9 0
vertex 41.25 -9 0
vertex 41.25 -9 1
endloop
endfacet
facet normal 0 -1 0
outer loop
vertex -41.25 -9 0
vertex 41.25 -9 1
vertex -41.25 -9 1
endloop
endfacet
facet normal -1 0 0
outer loop
vertex -41.25 9 1
vertex -41.25 9 0
vertex -41.25 -9 0
endloop
endfacet
facet normal -1 0 0
outer loop
vertex -41.25 9 1
vertex -41.25 -9 0
vertex -41.25 -9 1
endloop
endfacet
facet normal 1 0 0
outer loop
vertex 41.25 9 0
vertex 41.25 9 1
vertex 41.25 -9 1
endloop
endfacet
facet normal 1 0 0
outer loop
vertex 41.25 9 0
vertex 41.25 -9 1
vertex 41.25 -9 0
endloop
endfacet
facet normal 0 1 0
outer loop
vertex 41.25 9 1
vertex 41.25 9 0
vertex -41.25 9 0
endloop
endfacet
facet normal 0 1 0
outer loop
vertex 41.25 9 1
vertex -41.25 9 0
vertex -41.25 9 1
endloop
endfacet
facet normal 0 0 -1
outer loop
vertex 41.25 9 0
vertex 41.25 2.2 0
vertex -41.25 2.2 0
endloop
endfacet
facet normal 0 0 -1
outer loop
vertex 41.25 9 0
vertex -41.25 2.2 0
vertex -41.25 9 0
endloop
endfacet
facet normal 0 0 -1
outer loop
vertex -4.100000000000003 2.2 0
vertex -4.295090322016126 2.180785280403231 0
vertex -41.25 2.180785280403231 0
endloop
endfacet
facet normal 0 0 -1
outer loop
vertex -4.100000000000003 2.2 0
vertex -41.25 2.180785280403231 0
vertex -41.25 2.2 0
endloop
endfacet
facet normal 0 0 -1
outer loop
vertex 41.25 2.2 0
vertex 41.25 2.180785280403231 0
vertex 4.295090322016131 2.180785280403231 0
endloop
endfacet
facet normal 0 0 -1
outer loop
vertex 41.25 2.2 0
vertex 4.295090322016131 2.180785280403231 0
vertex 4.100000000000005 2.2 0
endloop
endfacet
facet normal 0 0 -1
outer loop
vertex -4.295090322016126 2.180785280403231 0
vertex -4.482683432365087 2.123879532511288 0
vertex -41.25 2.123879532511288 0
endloop
endfacet
facet normal 0 0 -1
outer loop
vertex -4.295090322016126 2.180785280403231 0
vertex -41.25 2.123879532511288 0
vertex -41.25 2.180785280403231 0
endloop
endfacet
facet normal 0 0 -1
outer loop
vertex 41.25 2.180785280403231 0
vertex 41.25 2.123879532511288 0
vertex 4.48268343236509 2.123879532511288 0
endloop
endfacet
facet normal 0 0 -1
outer loop
vertex 41.25 2.180785280403231 0
vertex 4.48268343236509 2.123879532511288 0
vertex 4.295090322016131 2.180785280403231 0
endloop
endfacet
facet normal 0 0 -1
outer loop
vertex -4.482683432365087 2.123879532511288 0
vertex -4.655570233019603 2.031469612302544 0
vertex -41.25 2.031469612302544 0
endloop
endfacet
facet normal 0 0 -1
outer loop
vertex -4.482683432365087 2.123879532511288 0
vertex -41.25 2.031469612302544 0
vertex -41.25 2.123879532511288 0
endloop
endfacet
facet normal 0 0 -1
outer loop
vertex 41.25 2.123879532511288 0
vertex 41.25 2.031469612302544 0
vertex 4.6555702330196 2.031469612302544 0
endloop
endfacet
facet normal 0 0 -1
outer loop
vertex 41.25 2.123879532511288 0
vertex 4.6555702330196 2.031469612302544 0
vertex 4.48268343236509 2.123879532511288 0
endloop
endfacet
facet normal 0 0 -1
outer loop
vertex -4.655570233019603 2.031469612302544 0
vertex -4.807106781186546 1.907106781186549 0
vertex -41.25 1.907106781186549 0
endloop
endfacet
facet normal 0 0 -1
outer loop
vertex -4.655570233019603 2.031469612302544 0
vertex -41.25 1.907106781186549 0
vertex -41.25 2.031469612302544 0
endloop
endfacet
facet normal 0 0 -1
outer loop
vertex 41.25 2.031469612302544 0
vertex 41.25 1.907106781186549 0
vertex 4.80710678118655 1.907106781186549 0
endloop
endfacet
facet normal 0 0 -1
outer loop
vertex 41.25 2.031469612302544 0
vertex 4.80710678118655 1.907106781186549 0
vertex 4.6555702330196 2.031469612302544 0
endloop
endfacet
facet normal 0 0 -1
outer loop
vertex -4.807106781186546 1.907106781186549 0
vertex -4.931469612302545 1.7555702330196 0
vertex -41.25 1.7555702330196 0
endloop
endfacet
facet normal 0 0 -1
outer loop
vertex -4.807106781186546 1.907106781186549 0
vertex -41.25 1.7555702330196 0
vertex -41.25 1.907106781186549 0
endloop
endfacet
facet normal 0 0 -1
outer loop
vertex 41.25 1.907106781186549 0
vertex 41.25 1.7555702330196 0
vertex 4.931469612302547 1.7555702330196 0
endloop
endfacet
facet normal 0 0 -1
outer loop
vertex 41.25 1.907106781186549 0
vertex 4.931469612302547 1.7555702330196 0
vertex 4.80710678118655 1.907106781186549 0
endloop
endfacet
facet normal 0 0 -1
outer loop
vertex -4.931469612302545 1.7555702330196 0
vertex -5.023879532511287 1.5826834323650896 0
vertex -41.25 1.5826834323650896 0
endloop
endfacet
facet normal 0 0 -1
outer loop
vertex -4.931469612302545 1.7555702330196 0
vertex -41.25 1.5826834323650896 0
vertex -41.25 1.7555702330196 0
endloop
endfacet
facet normal 0 0 -1
outer loop
vertex 41.25 1.7555702330196 0
vertex 41.25 1.5826834323650896 0
vertex 5.023879532511286 1.5826834323650896 0
endloop
endfacet
facet normal 0 0 -1
outer loop
vertex 41.25 1.7555702330196 0
vertex 5.023879532511286 1.5826834323650896 0
vertex 4.931469612302547 1.7555702330196 0
endloop
endfacet
facet normal 0 0 -1
outer loop
vertex -5.023879532511287 1.5826834323650896 0
vertex -5.08078528040323 1.3950903220161297 0
vertex -41.25 1.3950903220161297 0
endloop
endfacet
facet normal 0 0 -1
outer loop
vertex -5.023879532511287 1.5826834323650896 0
vertex -41.25 1.3950903220161297 0
vertex -41.25 1.5826834323650896 0
endloop
endfacet
facet normal 0 0 -1
outer loop
vertex 41.25 1.5826834323650896 0
vertex 41.25 1.3950903220161297 0
vertex 5.08078528040323 1.3950903220161297 0
endloop
endfacet
facet normal 0 0 -1
outer loop
vertex 41.25 1.5826834323650896 0
vertex 5.08078528040323 1.3950903220161297 0
vertex 5.023879532511286 1.5826834323650896 0
endloop
endfacet
facet normal 0 0 -1
outer loop
vertex -5.08078528040323 1.3950903220161297 0
vertex -5.1 1.2000000000000013 0
vertex -41.25 1.2000000000000013 0
endloop
endfacet
facet normal 0 0 -1
outer loop
vertex -5.08078528040323 1.3950903220161297 0
vertex -41.25 1.2000000000000013 0
vertex -41.25 1.3950903220161297 0
endloop
endfacet
facet normal 0 0 -1
outer loop
vertex 41.25 1.3950903220161297 0
vertex 41.25 1.2000000000000013 0
vertex 5.1 1.2000000000000013 0
endloop
endfacet
facet normal 0 0 -1
outer loop
vertex 41.25 1.3950903220161297 0
vertex 5.1 1.2000000000000013 0
vertex 5.08078528040323 1.3950903220161297 0
endloop
endfacet
facet normal 0 0 -1
outer loop
vertex -5.1 1.2000000000000013 0
vertex -5.080785280403231 1.0049096779838738 0
vertex -41.25 1.0049096779838738 0
endloop
endfacet
facet normal 0 0 -1
outer loop
vertex -5.1 1.2000000000000013 0
vertex -41.25 1.0049096779838738 0
vertex -41.25 1.2000000000000013 0
endloop
endfacet
facet normal 0 0 -1
outer loop
vertex 41.25 1.2000000000000013 0
vertex 41.25 1.0049096779838738 0
vertex 5.080785280403231 1.0049096779838738 0
endloop
endfacet
facet normal 0 0 -1
outer loop
vertex 41.25 1.2000000000000013 0
vertex 5.080785280403231 1.0049096779838738 0
vertex 5.1 1.2000000000000013 0
endloop
endfacet
facet normal 0 0 -1
outer loop
vertex -5.080785280403231 1.0049096779838738 0
vertex -5.0238795325112875 0.8173165676349113 0
vertex -41.25 0.8173165676349113 0
endloop
endfacet
facet normal 0 0 -1
outer loop
vertex -5.080785280403231 1.0049096779838738 0
vertex -41.25 0.8173165676349113 0
vertex -41.25 1.0049096779838738 0
endloop
endfacet
facet normal 0 0 -1
outer loop
vertex 41.25 1.0049096779838738 0
vertex 41.25 0.8173165676349113 0
vertex 5.023879532511287 0.8173165676349113 0
endloop
endfacet
facet normal 0 0 -1
outer loop
vertex 41.25 1.0049096779838738 0
vertex 5.023879532511287 0.8173165676349113 0
vertex 5.080785280403231 1.0049096779838738 0
endloop
endfacet
facet normal 0 0 -1
outer loop
vertex -5.0238795325112875 0.8173165676349113 0
vertex -4.931469612302544 0.6444297669803964 0
vertex -41.25 0.6444297669803964 0
endloop
endfacet
facet normal 0 0 -1
outer loop
vertex -5.0238795325112875 0.8173165676349113 0
vertex -41.25 0.6444297669803964 0
vertex -41.25 0.8173165676349113 0
endloop
endfacet
facet normal 0 0 -1
outer loop
vertex 41.25 0.8173165676349113 0
vertex 41.25 0.6444297669803964 0
vertex 4.931469612302544 0.6444297669803964 0
endloop
endfacet
facet normal 0 0 -1
outer loop
vertex 41.25 0.8173165676349113 0
vertex 4.931469612302544 0.6444297669803964 0
vertex 5.023879532511287 0.8173165676349113 0
endloop
endfacet
facet normal 0 0 -1
outer loop
vertex -4.931469612302544 0.6444297669803964 0
vertex -4.807106781186548 0.4928932188134534 0
vertex -41.25 0.4928932188134534 0
endloop
endfacet
facet normal 0 0 -1
outer loop
vertex -4.931469612302544 0.6444297669803964 0
vertex -41.25 0.4928932188134534 0
vertex -41.25 0.6444297669803964 0
endloop
endfacet
facet normal 0 0 -1
outer loop
vertex 41.25 0.6444297669803964 0
vertex 41.25 0.4928932188134534 0
vertex 4.807106781186548 0.4928932188134534 0
endloop
endfacet
facet normal 0 0 -1
outer loop
vertex 41.25 0.6444297669803964 0
vertex 4.807106781186548 0.4928932188134534 0
vertex 4.931469612302544 0.6444297669803964 0
endloop
endfacet
facet normal 0 0 -1
outer loop
vertex -4.807106781186548 0.4928932188134534 0
vertex -4.6555702330196 0.3685303876974539 0
vertex -41.25 0.3685303876974539 0
endloop
endfacet
facet normal 0 0 -1
outer loop
vertex -4.807106781186548 0.4928932188134534 0
vertex -41.25 0.3685303876974539 0
vertex -41.25 0.4928932188134534 0
endloop
endfacet
facet normal 0 0 -1
outer loop
vertex 41.25 0.4928932188134534 0
vertex 41.25 0.3685303876974539 0
vertex 4.655570233019599 0.3685303876974539 0
endloop
endfacet
facet normal 0 0 -1
outer loop
vertex 41.25 0.4928932188134534 0
vertex 4.655570233019599 0.3685303876974539 0
vertex 4.807106781186548 0.4928932188134534 0
endloop
endfacet
facet normal 0 0 -1
outer loop
vertex -4.6555702330196 0.3685303876974539 0
vertex -4.48268343236509 0.27612046748871355 0
vertex -41.25 0.27612046748871355 0
endloop
endfacet
facet normal 0 0 -1
outer loop
vertex -4.6555702330196 0.3685303876974539 0
vertex -41.25 0.27612046748871355 0
vertex -41.25 0.3685303876974539 0
endloop
endfacet
facet normal 0 0 -1
outer loop
vertex 41.25 0.3685303876974539 0
vertex 41.25 0.27612046748871355 0
vertex 4.482683432365089 0.27612046748871355 0
endloop
endfacet
facet normal 0 0 -1
outer loop
vertex 41.25 0.3685303876974539 0
vertex 4.482683432365089 0.27612046748871355 0
vertex 4.655570233019599 0.3685303876974539 0
endloop
endfacet
facet normal 0 0 -1
outer loop
vertex -4.48268343236509 0.27612046748871355 0
vertex -4.295090322016127 0.21921471959676986 0
vertex -41.25 0.21921471959676986 0
endloop
endfacet
facet normal 0 0 -1
outer loop
vertex -4.48268343236509 0.27612046748871355 0
vertex -41.25 0.21921471959676986 0
vertex -41.25 0.27612046748871355 0
endloop
endfacet
facet normal 0 0 -1
outer loop
vertex 41.25 0.27612046748871355 0
vertex 41.25 0.21921471959676986 0
vertex 4.2950903220161285 0.21921471959676986 0
endloop
endfacet
facet normal 0 0 -1
outer loop
vertex 41.25 0.27612046748871355 0
vertex 4.2950903220161285 0.21921471959676986 0
vertex 4.482683432365089 0.27612046748871355 0
endloop
endfacet
facet normal 0 0 -1
outer loop
vertex -4.295090322016127 0.21921471959676986 0
vertex -4.100000000000001 0.20000000000000018 0
vertex -41.25 0.20000000000000018 0
endloop
endfacet
facet normal 0 0 -1
outer loop
vertex -4.295090322016127 0.21921471959676986 0
vertex -41.25 0.20000000000000018 0
vertex -41.25 0.21921471959676986 0
endloop
endfacet
facet normal 0 0 -1
outer loop
vertex 41.25 0.21921471959676986 0
vertex 41.25 0.20000000000000018 0
vertex 4.1000000000000085 0.20000000000000018 0
endloop
endfacet
facet normal 0 0 -1
outer loop
vertex 41.25 0.21921471959676986 0
vertex 4.1000000000000085 0.20000000000000018 0
vertex 4.2950903220161285 0.21921471959676986 0
endloop
endfacet
facet normal 0 0 -1
outer loop
vertex 41.25 0.20000000000000018 0
vertex 41.25 -9 0
vertex -41.25 -9 0
endloop
endfacet
facet normal 0 0 -1
outer loop
vertex 41.25 0.20000000000000018 0
vertex -41.25 -9 0
vertex -41.25 0.20000000000000018 0
endloop
endfacet
endsolid csg.js
