solid csg.js
facet normal 0 0 1
outer loop
vertex 45 -15 1
vertex 45 -9.1 1
vertex -45 -9.1 1
endloop
endfacet
facet normal 0 0 1
outer loop
vertex 45 -15 1
vertex -45 -9.1 1
vertex -45 -15 1
endloop
endfacet
facet normal 0 0 1
outer loop
vertex -24.9 -9.1 1
vertex -24.9 -4.1 1
vertex -45 -4.1 1
endloop
endfacet
facet normal 0 0 1
outer loop
vertex -24.9 -9.1 1
vertex -45 -4.1 1
vertex -45 -9.1 1
endloop
endfacet
facet normal 0 0 1
outer loop
vertex -0.5 -9.1 1
vertex -0.5 -4.1 1
vertex -23.9 -4.1 1
endloop
endfacet
facet normal 0 0 1
outer loop
vertex -0.5 -9.1 1
vertex -23.9 -4.1 1
vertex -23.9 -9.1 1
endloop
endfacet
facet normal 0 0 1
outer loop
vertex 23.900000000000002 -9.1 1
vertex 23.900000000000002 -4.1 1
vertex 0.49999999999999994 -4.1 1
endloop
endfacet
facet normal 0 0 1
outer loop
vertex 23.900000000000002 -9.1 1
vertex 0.49999999999999994 -4.1 1
vertex 0.4999999999999999 -9.1 1
endloop
endfacet
facet normal 0 0 1
outer loop
vertex 45 -9.1 1
vertex 45 -4.1 1
vertex 24.900000000000002 -4.1 1
endloop
endfacet
facet normal 0 0 1
outer loop
vertex 45 -9.1 1
vertex 24.900000000000002 -4.1 1
vertex 24.900000000000002 -9.1 1
endloop
endfacet
facet normal 0 0 1
outer loop
vertex -36.6 -4.1 1
vertex -36.6 -0.5 1
vertex -45 -0.5 1
endloop
endfacet
facet normal 0 0 1
outer loop
vertex -36.6 -4.1 1
vertex -45 -0.5 1
vertex -45 -4.1 1
endloop
endfacet
facet normal 0 0 1
outer loop
vertex 45 -4.1 1
vertex 45 -0.5 1
vertex 36.6 -0.5 1
endloop
endfacet
facet normal 0 0 1
outer loop
vertex 45 -4.1 1
vertex 36.6 -0.5 1
vertex 36.6 -4.1 1
endloop
endfacet
facet normal 0 0 1
outer loop
vertex -41.6 -0.5 1
vertex -41.6 0.5 1
vertex -45 0.5 1
endloop
endfacet
facet normal 0 0 1
outer loop
vertex -41.6 -0.5 1
vertex -45 0.5 1
vertex -45 -0.5 1
endloop
endfacet
facet normal 0 0 1
outer loop
vertex 45 -0.5 1
vertex 45 0.5 1
vertex 41.6 0.5 1
endloop
endfacet
facet normal 0 0 1
outer loop
vertex 45 -0.5 1
vertex 41.6 0.5 1
vertex 41.6 -0.5 1
endloop
endfacet
facet normal 0 0 1
outer loop
vertex -36.6 0.5 1
vertex -36.6 4.1 1
vertex -45 4.1 1
endloop
endfacet
facet normal 0 0 1
outer loop
vertex -36.6 0.5 1
vertex -45 4.1 1
vertex -45 0.5 1
endloop
endfacet
facet normal 0 0 1
outer loop
vertex 45 0.5 1
vertex 45 4.1 1
vertex 36.6 4.1 1
endloop
endfacet
facet normal 0 0 1
outer loop
vertex 45 0.5 1
vertex 36.6 4.1 1
vertex 36.6 0.5 1
endloop
endfacet
facet normal 0 0 1
outer loop
vertex -24.900000000000002 4.1 1
vertex -24.900000000000002 9.100000000000001 1
vertex -45 9.100000000000001 1
endloop
endfacet
facet normal 0 0 1
outer loop
vertex -24.900000000000002 4.1 1
vertex -45 9.100000000000001 1
vertex -45 4.1 1
endloop
endfacet
facet normal 0 0 1
outer loop
vertex -0.5 4.1 1
vertex -0.5 9.100000000000001 1
vertex -23.900000000000002 9.100000000000001 1
endloop
endfacet
facet normal 0 0 1
outer loop
vertex -0.5 4.1 1
vertex -23.900000000000002 9.100000000000001 1
vertex -23.900000000000002 4.1 1
endloop
endfacet
facet normal 0 0 1
outer loop
vertex 23.900000000000002 4.1 1
vertex 23.9 9.100000000000001 1
vertex 0.5 9.100000000000001 1
endloop
endfacet
facet normal 0 0 1
outer loop
vertex 23.900000000000002 4.1 1
vertex 0.5 9.100000000000001 1
vertex 0.5 4.1 1
endloop
endfacet
facet normal 0 0 1
outer loop
vertex 45 4.1 1
vertex 45 9.100000000000001 1
vertex 24.900000000000002 9.100000000000001 1
endloop
endfacet
facet normal 0 0 1
outer loop
vertex 45 4.1 1
vertex 24.900000000000002 9.100000000000001 1
vertex 24.900000000000002 4.1 1
endloop
endfacet
facet normal 0 0 1
outer loop
vertex 45 9.100000000000001 1
vertex 45 15 1
vertex -45.00000000000001 15 1
endloop
endfacet
facet normal 0 0 1
outer loop
vertex 45 9.100000000000001 1
vertex -45.00000000000001 15 1
vertex -45 9.100000000000001 1
endloop
endfacet
facet normal -1 0 0
outer loop
vertex -41.6 -0.5 1
vertex -41.6 -0.5 22
vertex -41.6 0.5 22
endloop
endfacet
facet normal -1 0 0
outer loop
vertex -41.6 -0.5 1
vertex -41.6 0.5 22
vertex -41.6 0.5 1
endloop
endfacet
facet normal 1 0 0
outer loop
vertex 41.6 -0.5 1
vertex 41.6 0.5 1
vertex 41.6 0.5 22
endloop
endfacet
facet normal 1 0 0
outer loop
vertex 41.6 -0.5 1
vertex 41.6 0.5 22
vertex 41.6 -0.5 22
endloop
endfacet
facet normal 0 0 1
outer loop
vertex -23.900000000000002 -9.1 22
vertex -23.900000000000002 -0.5 22
vertex -24.900000000000002 -0.5 22
endloop
endfacet
facet normal 0 0 1
outer loop
vertex -23.900000000000002 -9.1 22
vertex -24.900000000000002 -0.5 22
vertex -24.900000000000002 -9.1 22
endloop
endfacet
facet normal 0 0 1
outer loop
vertex 0.5 -9.1 22
vertex 0.5 -0.5 22
vertex -0.5 -0.5 22
endloop
endfacet
facet normal 0 0 1
outer loop
vertex 0.5 -9.1 22
vertex -0.5 -0.5 22
vertex -0.5 -9.1 22
endloop
endfacet
facet normal 0 0 1
outer loop
vertex 24.900000000000002 -9.1 22
vertex 24.900000000000002 -0.5 22
vertex 23.900000000000002 -0.5 22
endloop
endfacet
facet normal 0 0 1
outer loop
vertex 24.900000000000002 -9.1 22
vertex 23.900000000000002 -0.5 22
vertex 23.900000000000002 -9.1 22
endloop
endfacet
facet normal 0 0 1
outer loop
vertex 41.6 -0.5 22
vertex 41.6 0.5 22
vertex -41.6 0.5 22
endloop
endfacet
facet normal 0 0 1
outer loop
vertex 41.6 -0.5 22
vertex -41.6 0.5 22
vertex -41.6 -0.5 22
endloop
endfacet
facet normal 0 0 1
outer loop
vertex -23.900000000000002 0.5 22
vertex -23.900000000000002 9.1 22
vertex -24.900000000000002 9.1 22
endloop
endfacet
facet normal 0 0 1
outer loop
vertex -23.900000000000002 0.5 22
vertex -24.900000000000002 9.1 22
vertex -24.900000000000002 0.5 22
endloop
endfacet
facet normal 0 0 1
outer loop
vertex 0.5 0.5 22
vertex 0.5 9.1 22
vertex -0.5 9.1 22
endloop
endfacet
facet normal 0 0 1
outer loop
vertex 0.5 0.5 22
vertex -0.5 9.1 22
vertex -0.5 0.5 22
endloop
endfacet
facet normal 0 0 1
outer loop
vertex 24.900000000000002 0.5 22
vertex 24.900000000000002 9.1 22
vertex 23.900000000000002 9.1 22
endloop
endfacet
facet normal 0 0 1
outer loop
vertex 24.900000000000002 0.5 22
vertex 23.900000000000002 9.1 22
vertex 23.900000000000002 0.5 22
endloop
endfacet
facet normal 0 -1 0
outer loop
vertex -23.9 -9.1 1
vertex -23.900000000000002 -9.1 22
vertex -24.900000000000002 -9.1 22
endloop
endfacet
facet normal 0 -1 0
outer loop
vertex -23.9 -9.1 1
vertex -24.900000000000002 -9.1 22
vertex -24.9 -9.1 1
endloop
endfacet
facet normal 0 -1 0
outer loop
vertex 0.4999999999999999 -9.1 1
vertex 0.5 -9.1 22
vertex -0.5 -9.1 22
endloop
endfacet
facet normal 0 -1 0
outer loop
vertex 0.4999999999999999 -9.1 1
vertex -0.5 -9.1 22
vertex -0.5 -9.1 1
endloop
endfacet
facet normal 0 -1 0
outer loop
vertex 24.900000000000002 -9.1 1
vertex 24.900000000000002 -9.1 22
vertex 23.900000000000002 -9.1 22
endloop
endfacet
facet normal 0 -1 0
outer loop
vertex 24.900000000000002 -9.1 1
vertex 23.900000000000002 -9.1 22
vertex 23.900000000000002 -9.1 1
endloop
endfacet
facet normal 0 1 0
outer loop
vertex -23.900000000000002 9.1 22
vertex -23.900000000000002 9.100000000000001 1
vertex -24.900000000000002 9.100000000000001 1
endloop
endfacet
facet normal 0 1 0
outer loop
vertex -23.900000000000002 9.1 22
vertex -24.900000000000002 9.100000000000001 1
vertex -24.900000000000002 9.1 22
endloop
endfacet
facet normal 0 1 0
outer loop
vertex 0.5 9.1 22
vertex 0.5 9.100000000000001 1
vertex -0.5 9.100000000000001 1
endloop
endfacet
facet normal 0 1 0
outer loop
vertex 0.5 9.1 22
vertex -0.5 9.100000000000001 1
vertex -0.5 9.1 22
endloop
endfacet
facet normal 0 1 0
outer loop
vertex 24.900000000000002 9.1 22
vertex 24.900000000000002 9.100000000000001 1
vertex 23.9 9.100000000000001 1
endloop
endfacet
facet normal 0 1 0
outer loop
vertex 24.900000000000002 9.1 22
vertex 23.9 9.100000000000001 1
vertex 23.900000000000002 9.1 22
endloop
endfacet
facet normal 1 0 0
outer loop
vertex -36.6 4.1 0
vertex -36.6 4.1 1
vertex -36.6 -4.1 1
endloop
endfacet
facet normal 1 0 0
outer loop
vertex -36.6 4.1 0
vertex -36.6 -4.1 1
vertex -36.6 -4.1 0
endloop
endfacet
facet normal 1 0 0
outer loop
vertex -36.6 0.5 1
vertex -36.6 0.5 7
vertex -36.6 -0.5 7
endloop
endfacet
facet normal 1 0 0
outer loop
vertex -36.6 0.5 1
vertex -36.6 -0.5 7
vertex -36.6 -0.5 1
endloop
endfacet
facet normal 0 1 0
outer loop
vertex -23.9 -4.1 16
vertex -23.9 -4.1 1
vertex -24.9 -4.1 1
endloop
endfacet
facet normal 0 1 0
outer loop
vertex -23.9 -4.1 16
vertex -24.9 -4.1 1
vertex -24.9 -4.1 16
endloop
endfacet
facet normal 0 1 0
outer loop
vertex 0.5 -4.1 16
vertex 0.49999999999999994 -4.1 1
vertex -0.5 -4.1 1
endloop
endfacet
facet normal 0 1 0
outer loop
vertex 0.5 -4.1 16
vertex -0.5 -4.1 1
vertex -0.5000000000000036 -4.1 16
endloop
endfacet
facet normal 0 1 0
outer loop
vertex 24.900000000000002 -4.1 16
vertex 24.900000000000002 -4.1 1
vertex 23.900000000000002 -4.1 1
endloop
endfacet
facet normal 0 1 0
outer loop
vertex 24.900000000000002 -4.1 16
vertex 23.900000000000002 -4.1 1
vertex 23.900000000000002 -4.1 16
endloop
endfacet
facet normal 0 1 0
outer loop
vertex 36.6 -4.1 1
vertex 36.6 -4.1 0
vertex -36.6 -4.1 0
endloop
endfacet
facet normal 0 1 0
outer loop
vertex 36.6 -4.1 1
vertex -36.6 -4.1 0
vertex -36.6 -4.1 1
endloop
endfacet
facet normal 0 -1 0
outer loop
vertex 36.6 4.1 0
vertex 36.6 4.1 1
vertex -36.6 4.1 1
endloop
endfacet
facet normal 0 -1 0
outer loop
vertex 36.6 4.1 0
vertex -36.6 4.1 1
vertex -36.6 4.1 0
endloop
endfacet
facet normal 0 -1 0
outer loop
vertex -23.900000000000002 4.1 1
vertex -23.900000000000002 4.1 16
vertex -24.900000000000002 4.1 16
endloop
endfacet
facet normal 0 -1 0
outer loop
vertex -23.900000000000002 4.1 1
vertex -24.900000000000002 4.1 16
vertex -24.900000000000002 4.1 1
endloop
endfacet
facet normal 0 -1 0
outer loop
vertex 0.5 4.1 1
vertex 0.5 4.1 16
vertex -0.5 4.1 16
endloop
endfacet
facet normal 0 -1 0
outer loop
vertex 0.5 4.1 1
vertex -0.5 4.1 16
vertex -0.5 4.1 1
endloop
endfacet
facet normal 0 -1 0
outer loop
vertex 24.900000000000002 4.1 1
vertex 24.900000000000002 4.1 16
vertex 23.900000000000002 4.1 16
endloop
endfacet
facet normal 0 -1 0
outer loop
vertex 24.900000000000002 4.1 1
vertex 23.900000000000002 4.1 16
vertex 23.900000000000002 4.1 1
endloop
endfacet
facet normal -1 0 0
outer loop
vertex 36.6 0.49999999999999956 7
vertex 36.6 0.5 1
vertex 36.6 -0.5 1
endloop
endfacet
facet normal -1 0 0
outer loop
vertex 36.6 0.49999999999999956 7
vertex 36.6 -0.5 1
vertex 36.6 -0.5 7
endloop
endfacet
facet normal -1 0 0
outer loop
vertex 36.6 4.1 1
vertex 36.6 4.1 0
vertex 36.6 -4.1 0
endloop
endfacet
facet normal -1 0 0
outer loop
vertex 36.6 4.1 1
vertex 36.6 -4.1 0
vertex 36.6 -4.1 1
endloop
endfacet
facet normal 0 0 -1
outer loop
vertex -23.900000000000002 4.1 16
vertex -23.900000000000002 0.49999999999999956 16
vertex -24.900000000000002 0.49999999999999956 16
endloop
endfacet
facet normal 0 0 -1
outer loop
vertex -23.900000000000002 4.1 16
vertex -24.900000000000002 0.49999999999999956 16
vertex -24.900000000000002 4.1 16
endloop
endfacet
facet normal 0 0 -1
outer loop
vertex 0.5 4.1 16
vertex 0.5 0.49999999999999956 16
vertex -0.5 0.49999999999999956 16
endloop
endfacet
facet normal 0 0 -1
outer loop
vertex 0.5 4.1 16
vertex -0.5 0.49999999999999956 16
vertex -0.5 4.1 16
endloop
endfacet
facet normal 0 0 -1
outer loop
vertex 24.900000000000002 4.1 16
vertex 24.900000000000002 0.49999999999999956 16
vertex 23.900000000000002 0.49999999999999956 16
endloop
endfacet
facet normal 0 0 -1
outer loop
vertex 24.900000000000002 4.1 16
vertex 23.900000000000002 0.49999999999999956 16
vertex 23.900000000000002 4.1 16
endloop
endfacet
facet normal 0 0 -1
outer loop
vertex 27.6 0.49999999999999956 16
vertex 27.6 -0.5 16
vertex -27.6 -0.5 16
endloop
endfacet
facet normal 0 0 -1
outer loop
vertex 27.6 0.49999999999999956 16
vertex -27.6 -0.5 16
vertex -27.6 0.49999999999999956 16
endloop
endfacet
facet normal 0 0 -1
outer loop
vertex -23.9 -0.5 16
vertex -23.9 -4.1 16
vertex -24.9 -4.1 16
endloop
endfacet
facet normal 0 0 -1
outer loop
vertex -23.9 -0.5 16
vertex -24.9 -4.1 16
vertex -24.9 -0.5 16
endloop
endfacet
facet normal 0 0 -1
outer loop
vertex 0.5 -0.5 16
vertex 0.5 -4.1 16
vertex -0.5000000000000036 -4.1 16
endloop
endfacet
facet normal 0 0 -1
outer loop
vertex 0.5 -0.5 16
vertex -0.5000000000000036 -4.1 16
vertex -0.5000000000000036 -0.5 16
endloop
endfacet
facet normal 0 0 -1
outer loop
vertex 24.900000000000002 -0.5 16
vertex 24.900000000000002 -4.1 16
vertex 23.900000000000002 -4.1 16
endloop
endfacet
facet normal 0 0 -1
outer loop
vertex 24.900000000000002 -0.5 16
vertex 23.900000000000002 -4.1 16
vertex 23.900000000000002 -0.5 16
endloop
endfacet
facet normal 0.9951847266721969 0 -0.09801714032955997
outer loop
vertex -36.42706752362908 0.5 8.755812898145159
vertex -36.42706752362908 -0.5 8.755812898145159
vertex -36.6 -0.5 7
endloop
endfacet
facet normal 0.9951847266721969 0 -0.09801714032955997
outer loop
vertex -36.42706752362908 0.5 8.755812898145159
vertex -36.6 -0.5 7
vertex -36.6 0.5 7
endloop
endfacet
facet normal 0.9569403357322089 0 -0.2902846772544624
outer loop
vertex -35.91491579260158 0.5 10.444150891285803
vertex -35.91491579260158 -0.5 10.444150891285803
vertex -36.42706752362908 -0.5 8.755812898145159
endloop
endfacet
facet normal 0.9569403357322089 0 -0.2902846772544624
outer loop
vertex -35.91491579260158 0.5 10.444150891285803
vertex -36.42706752362908 -0.5 8.755812898145159
vertex -36.42706752362908 0.5 8.755812898145159
endloop
endfacet
facet normal 0.8819212643483568 0 -0.4713967368259944
outer loop
vertex -35.08322651072291 0.5 12.000132097176413
vertex -35.08322651072291 -0.5 12.000132097176413
vertex -35.91491579260158 -0.5 10.444150891285803
endloop
endfacet
facet normal 0.8819212643483568 0 -0.4713967368259944
outer loop
vertex -35.08322651072291 0.5 12.000132097176413
vertex -35.91491579260158 -0.5 10.444150891285803
vertex -35.91491579260158 0.5 10.444150891285803
endloop
endfacet
facet normal 0.7730104533627382 0 -0.6343932841636442
outer loop
vertex -33.96396103067893 0.5 13.363961030678928
vertex -33.96396103067893 -0.5 13.363961030678928
vertex -35.08322651072291 -0.5 12.000132097176413
endloop
endfacet
facet normal 0.7730104533627382 0 -0.6343932841636442
outer loop
vertex -33.96396103067893 0.5 13.363961030678928
vertex -35.08322651072291 -0.5 12.000132097176413
vertex -35.08322651072291 0.5 12.000132097176413
endloop
endfacet
facet normal 0.6343932841636442 0 -0.7730104533627382
outer loop
vertex -32.60013209717642 0.5 14.483226510722908
vertex -32.60013209717642 -0.5 14.483226510722908
vertex -33.96396103067893 -0.5 13.363961030678928
endloop
endfacet
facet normal 0.6343932841636442 0 -0.7730104533627382
outer loop
vertex -32.60013209717642 0.5 14.483226510722908
vertex -33.96396103067893 -0.5 13.363961030678928
vertex -33.96396103067893 0.5 13.363961030678928
endloop
endfacet
facet normal 0.4713967368259972 0 -0.8819212643483554
outer loop
vertex -31.044150891285813 0.5 15.314915792601578
vertex -31.044150891285813 -0.5 15.314915792601578
vertex -32.60013209717642 -0.5 14.483226510722908
endloop
endfacet
facet normal 0.4713967368259972 0 -0.8819212643483554
outer loop
vertex -31.044150891285813 0.5 15.314915792601578
vertex -32.60013209717642 -0.5 14.483226510722908
vertex -32.60013209717642 0.5 14.483226510722908
endloop
endfacet
facet normal 0.29028467725446194 0 -0.956940335732209
outer loop
vertex -29.35581289814516 0.5 15.827067523629072
vertex -29.35581289814516 -0.5 15.827067523629072
vertex -31.044150891285813 -0.5 15.314915792601578
endloop
endfacet
facet normal 0.29028467725446194 0 -0.956940335732209
outer loop
vertex -29.35581289814516 0.5 15.827067523629072
vertex -31.044150891285813 -0.5 15.314915792601578
vertex -31.044150891285813 0.5 15.314915792601578
endloop
endfacet
facet normal 0.09801714032956149 0 -0.9951847266721969
outer loop
vertex -27.6 0.49999999999999956 16
vertex -27.6 -0.5 16
vertex -29.35581289814516 -0.5 15.827067523629072
endloop
endfacet
facet normal 0.09801714032956149 0 -0.9951847266721969
outer loop
vertex -27.6 0.49999999999999956 16
vertex -29.35581289814516 -0.5 15.827067523629072
vertex -29.35581289814516 0.5 15.827067523629072
endloop
endfacet
facet normal -0.0980171403295583 0 -0.9951847266721972
outer loop
vertex 29.355812898145157 0.5 15.827067523629072
vertex 29.355812898145157 -0.5 15.827067523629072
vertex 27.6 -0.5 16
endloop
endfacet
facet normal -0.0980171403295583 0 -0.9951847266721972
outer loop
vertex 29.355812898145157 0.5 15.827067523629072
vertex 27.6 -0.5 16
vertex 27.6 0.49999999999999956 16
endloop
endfacet
facet normal -0.29028467725446194 0 -0.956940335732209
outer loop
vertex 31.04415089128581 0.5 15.314915792601578
vertex 31.04415089128581 -0.5 15.314915792601578
vertex 29.355812898145157 -0.5 15.827067523629072
endloop
endfacet
facet normal -0.29028467725446194 0 -0.956940335732209
outer loop
vertex 31.04415089128581 0.5 15.314915792601578
vertex 29.355812898145157 -0.5 15.827067523629072
vertex 29.355812898145157 0.5 15.827067523629072
endloop
endfacet
facet normal -0.47139673682599864 0 -0.8819212643483545
outer loop
vertex 32.60013209717642 0.5 14.483226510722908
vertex 32.60013209717642 -0.5 14.483226510722908
vertex 31.04415089128581 -0.5 15.314915792601578
endloop
endfacet
facet normal -0.47139673682599864 0 -0.8819212643483545
outer loop
vertex 32.60013209717642 0.5 14.483226510722908
vertex 31.04415089128581 -0.5 15.314915792601578
vertex 31.04415089128581 0.5 15.314915792601578
endloop
endfacet
facet normal -0.6343932841636452 0 -0.7730104533627373
outer loop
vertex 33.96396103067893 0.5 13.363961030678928
vertex 33.96396103067893 -0.5 13.363961030678928
vertex 32.60013209717642 -0.5 14.483226510722908
endloop
endfacet
facet normal -0.6343932841636452 0 -0.7730104533627373
outer loop
vertex 33.96396103067893 0.5 13.363961030678928
vertex 32.60013209717642 -0.5 14.483226510722908
vertex 32.60013209717642 0.5 14.483226510722908
endloop
endfacet
facet normal -0.7730104533627382 0 -0.6343932841636442
outer loop
vertex 35.08322651072291 0.5 12.000132097176413
vertex 35.08322651072291 -0.5 12.000132097176413
vertex 33.96396103067893 -0.5 13.363961030678928
endloop
endfacet
facet normal -0.7730104533627382 0 -0.6343932841636442
outer loop
vertex 35.08322651072291 0.5 12.000132097176413
vertex 33.96396103067893 -0.5 13.363961030678928
vertex 33.96396103067893 0.5 13.363961030678928
endloop
endfacet
facet normal -0.8819212643483534 0 -0.47139673682600064
outer loop
vertex 35.914915792601576 0.5 10.444150891285803
vertex 35.914915792601576 -0.5 10.444150891285803
vertex 35.08322651072291 -0.5 12.000132097176413
endloop
endfacet
facet normal -0.8819212643483534 0 -0.47139673682600064
outer loop
vertex 35.914915792601576 0.5 10.444150891285803
vertex 35.08322651072291 -0.5 12.000132097176413
vertex 35.08322651072291 0.5 12.000132097176413
endloop
endfacet
facet normal -0.956940335732209 0 -0.29028467725446194
outer loop
vertex 36.42706752362908 0.5 8.755812898145159
vertex 36.42706752362908 -0.5 8.755812898145159
vertex 35.914915792601576 -0.5 10.444150891285803
endloop
endfacet
facet normal -0.956940335732209 0 -0.29028467725446194
outer loop
vertex 36.42706752362908 0.5 8.755812898145159
vertex 35.914915792601576 -0.5 10.444150891285803
vertex 35.914915792601576 0.5 10.444150891285803
endloop
endfacet
facet normal -0.9951847266721969 0 -0.09801714032955997
outer loop
vertex 36.6 0.49999999999999956 7
vertex 36.6 -0.5 7
vertex 36.42706752362908 -0.5 8.755812898145159
endloop
endfacet
facet normal -0.9951847266721969 0 -0.09801714032955997
outer loop
vertex 36.6 0.49999999999999956 7
vertex 36.42706752362908 -0.5 8.755812898145159
vertex 36.42706752362908 0.5 8.755812898145159
endloop
endfacet
facet normal 0 -1 0
outer loop
vertex -36.6 -0.5 1
vertex -36.6 -0.5 7
vertex -41.6 -0.5 7
endloop
endfacet
facet normal 0 -1 0
outer loop
vertex -36.6 -0.5 1
vertex -41.6 -0.5 7
vertex -41.6 -0.5 1
endloop
endfacet
facet normal 0 -1 0
outer loop
vertex 41.6 -0.5 1
vertex 41.6 -0.5 7
vertex 36.6 -0.5 7
endloop
endfacet
facet normal 0 -1 0
outer loop
vertex 41.6 -0.5 1
vertex 36.6 -0.5 7
vertex 36.6 -0.5 1
endloop
endfacet
facet normal 0 -1 0
outer loop
vertex -36.6 -0.5 7
vertex -36.42706752362908 -0.5 8.755812898145159
vertex -41.6 -0.5 8.755812898145159
endloop
endfacet
facet normal 0 -1 0
outer loop
vertex -36.6 -0.5 7
vertex -41.6 -0.5 8.755812898145159
vertex -41.6 -0.5 7
endloop
endfacet
facet normal 0 -1 0
outer loop
vertex 41.6 -0.5 7
vertex 41.6 -0.5 8.755812898145159
vertex 36.42706752362908 -0.5 8.755812898145159
endloop
endfacet
facet normal 0 -1 0
outer loop
vertex 41.6 -0.5 7
vertex 36.42706752362908 -0.5 8.755812898145159
vertex 36.6 -0.5 7
endloop
endfacet
facet normal 0 -1 0
outer loop
vertex -36.42706752362908 -0.5 8.755812898145159
vertex -35.91491579260158 -0.5 10.444150891285803
vertex -41.6 -0.5 10.444150891285803
endloop
endfacet
facet normal 0 -1 0
outer loop
vertex -36.42706752362908 -0.5 8.755812898145159
vertex -41.6 -0.5 10.444150891285803
vertex -41.6 -0.5 8.755812898145159
endloop
endfacet
facet normal 0 -1 0
outer loop
vertex 41.6 -0.5 8.755812898145159
vertex 41.6 -0.5 10.444150891285803
vertex 35.914915792601576 -0.5 10.444150891285803
endloop
endfacet
facet normal 0 -1 0
outer loop
vertex 41.6 -0.5 8.755812898145159
vertex 35.914915792601576 -0.5 10.444150891285803
vertex 36.42706752362908 -0.5 8.755812898145159
endloop
endfacet
facet normal 0 -1 0
outer loop
vertex -35.91491579260158 -0.5 10.444150891285803
vertex -35.08322651072291 -0.5 12.000132097176413
vertex -41.6 -0.5 12.000132097176413
endloop
endfacet
facet normal 0 -1 0
outer loop
vertex -35.91491579260158 -0.5 10.444150891285803
vertex -41.6 -0.5 12.000132097176413
vertex -41.6 -0.5 10.444150891285803
endloop
endfacet
facet normal 0 -1 0
outer loop
vertex 41.6 -0.5 10.444150891285803
vertex 41.6 -0.5 12.000132097176413
vertex 35.08322651072291 -0.5 12.000132097176413
endloop
endfacet
facet normal 0 -1 0
outer loop
vertex 41.6 -0.5 10.444150891285803
vertex 35.08322651072291 -0.5 12.000132097176413
vertex 35.914915792601576 -0.5 10.444150891285803
endloop
endfacet
facet normal 0 -1 0
outer loop
vertex -35.08322651072291 -0.5 12.000132097176413
vertex -33.96396103067893 -0.5 13.363961030678928
vertex -41.6 -0.5 13.363961030678928
endloop
endfacet
facet normal 0 -1 0
outer loop
vertex -35.08322651072291 -0.5 12.000132097176413
vertex -41.6 -0.5 13.363961030678928
vertex -41.6 -0.5 12.000132097176413
endloop
endfacet
facet normal 0 -1 0
outer loop
vertex 41.6 -0.5 12.000132097176413
vertex 41.6 -0.5 13.363961030678928
vertex 33.96396103067893 -0.5 13.363961030678928
endloop
endfacet
facet normal 0 -1 0
outer loop
vertex 41.6 -0.5 12.000132097176413
vertex 33.96396103067893 -0.5 13.363961030678928
vertex 35.08322651072291 -0.5 12.000132097176413
endloop
endfacet
facet normal 0 -1 0
outer loop
vertex -33.96396103067893 -0.5 13.363961030678928
vertex -32.60013209717642 -0.5 14.483226510722908
vertex -41.6 -0.5 14.483226510722908
endloop
endfacet
facet normal 0 -1 0
outer loop
vertex -33.96396103067893 -0.5 13.363961030678928
vertex -41.6 -0.5 14.483226510722908
vertex -41.6 -0.5 13.363961030678928
endloop
endfacet
facet normal 0 -1 0
outer loop
vertex 41.6 -0.5 13.363961030678928
vertex 41.6 -0.5 14.483226510722908
vertex 32.60013209717642 -0.5 14.483226510722908
endloop
endfacet
facet normal 0 -1 0
outer loop
vertex 41.6 -0.5 13.363961030678928
vertex 32.60013209717642 -0.5 14.483226510722908
vertex 33.96396103067893 -0.5 13.363961030678928
endloop
endfacet
facet normal 0 -1 0
outer loop
vertex -32.60013209717642 -0.5 14.483226510722908
vertex -31.044150891285813 -0.5 15.314915792601578
vertex -41.6 -0.5 15.314915792601578
endloop
endfacet
facet normal 0 -1 0
outer loop
vertex -32.60013209717642 -0.5 14.483226510722908
vertex -41.6 -0.5 15.314915792601578
vertex -41.6 -0.5 14.483226510722908
endloop
endfacet
facet normal 0 -1 0
outer loop
vertex 41.6 -0.5 14.483226510722908
vertex 41.6 -0.5 15.314915792601578
vertex 31.04415089128581 -0.5 15.314915792601578
endloop
endfacet
facet normal 0 -1 0
outer loop
vertex 41.6 -0.5 14.483226510722908
vertex 31.04415089128581 -0.5 15.314915792601578
vertex 32.60013209717642 -0.5 14.483226510722908
endloop
endfacet
facet normal 0 -1 0
outer loop
vertex -31.044150891285813 -0.5 15.314915792601578
vertex -29.35581289814516 -0.5 15.827067523629072
vertex -41.6 -0.5 15.827067523629072
endloop
endfacet
facet normal 0 -1 0
outer loop
vertex -31.044150891285813 -0.5 15.314915792601578
vertex -41.6 -0.5 15.827067523629072
vertex -41.6 -0.5 15.314915792601578
endloop
endfacet
facet normal 0 -1 0
outer loop
vertex 41.6 -0.5 15.314915792601578
vertex 41.6 -0.5 15.827067523629072
vertex 29.355812898145157 -0.5 15.827067523629072
endloop
endfacet
facet normal 0 -1 0
outer loop
vertex 41.6 -0.5 15.314915792601578
vertex 29.355812898145157 -0.5 15.827067523629072
vertex 31.04415089128581 -0.5 15.314915792601578
endloop
endfacet
facet normal 0 -1 0
outer loop
vertex -29.35581289814516 -0.5 15.827067523629072
vertex -27.6 -0.5 16
vertex -41.6 -0.5 16
endloop
endfacet
facet normal 0 -1 0
outer loop
vertex -29.35581289814516 -0.5 15.827067523629072
vertex -41.6 -0.5 16
vertex -41.6 -0.5 15.827067523629072
endloop
endfacet
facet normal 0 -1 0
outer loop
vertex 41.6 -0.5 15.827067523629072
vertex 41.6 -0.5 16
vertex 27.6 -0.5 16
endloop
endfacet
facet normal 0 -1 0
outer loop
vertex 41.6 -0.5 15.827067523629072
vertex 27.6 -0.5 16
vertex 29.355812898145157 -0.5 15.827067523629072
endloop
endfacet
facet normal 0 -1 0
outer loop
vertex -24.9 -0.5 16
vertex -24.900000000000002 -0.5 22
vertex -41.6 -0.5 22
endloop
endfacet
facet normal 0 -1 0
outer loop
vertex -24.9 -0.5 16
vertex -41.6 -0.5 22
vertex -41.6 -0.5 16
endloop
endfacet
facet normal 0 -1 0
outer loop
vertex -0.5000000000000036 -0.5 16
vertex -0.5 -0.5 22
vertex -23.900000000000002 -0.5 22
endloop
endfacet
facet normal 0 -1 0
outer loop
vertex -0.5000000000000036 -0.5 16
vertex -23.900000000000002 -0.5 22
vertex -23.9 -0.5 16
endloop
endfacet
facet normal 0 -1 0
outer loop
vertex 23.900000000000002 -0.5 16
vertex 23.900000000000002 -0.5 22
vertex 0.5 -0.5 22
endloop
endfacet
facet normal 0 -1 0
outer loop
vertex 23.900000000000002 -0.5 16
vertex 0.5 -0.5 22
vertex 0.5 -0.5 16
endloop
endfacet
facet normal 0 -1 0
outer loop
vertex 41.6 -0.5 16
vertex 41.6 -0.5 22
vertex 24.900000000000002 -0.5 22
endloop
endfacet
facet normal 0 -1 0
outer loop
vertex 41.6 -0.5 16
vertex 24.900000000000002 -0.5 22
vertex 24.900000000000002 -0.5 16
endloop
endfacet
facet normal 0 1 0
outer loop
vertex -24.900000000000002 0.5 22
vertex -24.900000000000002 0.49999999999999956 16
vertex -41.6 0.5 16
endloop
endfacet
facet normal 0 1 0
outer loop
vertex -24.900000000000002 0.5 22
vertex -41.6 0.5 16
vertex -41.6 0.5 22
endloop
endfacet
facet normal 0 1 0
outer loop
vertex -0.5 0.5 22
vertex -0.5 0.49999999999999956 16
vertex -23.900000000000002 0.49999999999999956 16
endloop
endfacet
facet normal 0 1 0
outer loop
vertex -0.5 0.5 22
vertex -23.900000000000002 0.49999999999999956 16
vertex -23.900000000000002 0.5 22
endloop
endfacet
facet normal 0 1 0
outer loop
vertex 23.900000000000002 0.5 22
vertex 23.900000000000002 0.49999999999999956 16
vertex 0.5 0.49999999999999956 16
endloop
endfacet
facet normal 0 1 0
outer loop
vertex 23.900000000000002 0.5 22
vertex 0.5 0.49999999999999956 16
vertex 0.5 0.5 22
endloop
endfacet
facet normal 0 1 0
outer loop
vertex 41.6 0.5 22
vertex 41.6 0.5 16
vertex 24.900000000000002 0.49999999999999956 16
endloop
endfacet
facet normal 0 1 0
outer loop
vertex 41.6 0.5 22
vertex 24.900000000000002 0.49999999999999956 16
vertex 24.900000000000002 0.5 22
endloop
endfacet
facet normal 0 1 0
outer loop
vertex -27.6 0.49999999999999956 16
vertex -29.35581289814516 0.5 15.827067523629072
vertex -41.6 0.5 15.827067523629072
endloop
endfacet
facet normal 0 1 0
outer loop
vertex -27.6 0.49999999999999956 16
vertex -41.6 0.5 15.827067523629072
vertex -41.6 0.5 16
endloop
endfacet
facet normal 0 1 0
outer loop
vertex 41.6 0.5 16
vertex 41.6 0.5 15.827067523629072
vertex 29.355812898145157 0.5 15.827067523629072
endloop
endfacet
facet normal 0 1 0
outer loop
vertex 41.6 0.5 16
vertex 29.355812898145157 0.5 15.827067523629072
vertex 27.6 0.49999999999999956 16
endloop
endfacet
facet normal 0 1 0
outer loop
vertex -29.35581289814516 0.5 15.827067523629072
vertex -31.044150891285813 0.5 15.314915792601578
vertex -41.6 0.5 15.314915792601578
endloop
endfacet
facet normal 0 1 0
outer loop
vertex -29.35581289814516 0.5 15.827067523629072
vertex -41.6 0.5 15.314915792601578
vertex -41.6 0.5 15.827067523629072
endloop
endfacet
facet normal 0 1 0
outer loop
vertex 41.6 0.5 15.827067523629072
vertex 41.6 0.5 15.314915792601578
vertex 31.04415089128581 0.5 15.314915792601578
endloop
endfacet
facet normal 0 1 0
outer loop
vertex 41.6 0.5 15.827067523629072
vertex 31.04415089128581 0.5 15.314915792601578
vertex 29.355812898145157 0.5 15.827067523629072
endloop
endfacet
facet normal 0 1 0
outer loop
vertex -31.044150891285813 0.5 15.314915792601578
vertex -32.60013209717642 0.5 14.483226510722908
vertex -41.6 0.5 14.483226510722908
endloop
endfacet
facet normal 0 1 0
outer loop
vertex -31.044150891285813 0.5 15.314915792601578
vertex -41.6 0.5 14.483226510722908
vertex -41.6 0.5 15.314915792601578
endloop
endfacet
facet normal 0 1 0
outer loop
vertex 41.6 0.5 15.314915792601578
vertex 41.6 0.5 14.483226510722908
vertex 32.60013209717642 0.5 14.483226510722908
endloop
endfacet
facet normal 0 1 0
outer loop
vertex 41.6 0.5 15.314915792601578
vertex 32.60013209717642 0.5 14.483226510722908
vertex 31.04415089128581 0.5 15.314915792601578
endloop
endfacet
facet normal 0 1 0
outer loop
vertex -32.60013209717642 0.5 14.483226510722908
vertex -33.96396103067893 0.5 13.363961030678928
vertex -41.6 0.5 13.363961030678928
endloop
endfacet
facet normal 0 1 0
outer loop
vertex -32.60013209717642 0.5 14.483226510722908
vertex -41.6 0.5 13.363961030678928
vertex -41.6 0.5 14.483226510722908
endloop
endfacet
facet normal 0 1 0
outer loop
vertex 41.6 0.5 14.483226510722908
vertex 41.6 0.5 13.363961030678928
vertex 33.96396103067893 0.5 13.363961030678928
endloop
endfacet
facet normal 0 1 0
outer loop
vertex 41.6 0.5 14.483226510722908
vertex 33.96396103067893 0.5 13.363961030678928
vertex 32.60013209717642 0.5 14.483226510722908
endloop
endfacet
facet normal 0 1 0
outer loop
vertex -33.96396103067893 0.5 13.363961030678928
vertex -35.08322651072291 0.5 12.000132097176413
vertex -41.6 0.5 12.000132097176413
endloop
endfacet
facet normal 0 1 0
outer loop
vertex -33.96396103067893 0.5 13.363961030678928
vertex -41.6 0.5 12.000132097176413
vertex -41.6 0.5 13.363961030678928
endloop
endfacet
facet normal 0 1 0
outer loop
vertex 41.6 0.5 13.363961030678928
vertex 41.6 0.5 12.000132097176413
vertex 35.08322651072291 0.5 12.000132097176413
endloop
endfacet
facet normal 0 1 0
outer loop
vertex 41.6 0.5 13.363961030678928
vertex 35.08322651072291 0.5 12.000132097176413
vertex 33.96396103067893 0.5 13.363961030678928
endloop
endfacet
facet normal 0 1 0
outer loop
vertex -35.08322651072291 0.5 12.000132097176413
vertex -35.91491579260158 0.5 10.444150891285803
vertex -41.6 0.5 10.444150891285803
endloop
endfacet
facet normal 0 1 0
outer loop
vertex -35.08322651072291 0.5 12.000132097176413
vertex -41.6 0.5 10.444150891285803
vertex -41.6 0.5 12.000132097176413
endloop
endfacet
facet normal 0 1 0
outer loop
vertex 41.6 0.5 12.000132097176413
vertex 41.6 0.5 10.444150891285803
vertex 35.914915792601576 0.5 10.444150891285803
endloop
endfacet
facet normal 0 1 0
outer loop
vertex 41.6 0.5 12.000132097176413
vertex 35.914915792601576 0.5 10.444150891285803
vertex 35.08322651072291 0.5 12.000132097176413
endloop
endfacet
facet normal 0 1 0
outer loop
vertex -35.91491579260158 0.5 10.444150891285803
vertex -36.42706752362908 0.5 8.755812898145159
vertex -41.6 0.5 8.755812898145159
endloop
endfacet
facet normal 0 1 0
outer loop
vertex -35.91491579260158 0.5 10.444150891285803
vertex -41.6 0.5 8.755812898145159
vertex -41.6 0.5 10.444150891285803
endloop
endfacet
facet normal 0 1 0
outer loop
vertex 41.6 0.5 10.444150891285803
vertex 41.6 0.5 8.755812898145159
vertex 36.42706752362908 0.5 8.755812898145159
endloop
endfacet
facet normal 0 1 0
outer loop
vertex 41.6 0.5 10.444150891285803
vertex 36.42706752362908 0.5 8.755812898145159
vertex 35.914915792601576 0.5 10.444150891285803
endloop
endfacet
facet normal 0 1 0
outer loop
vertex -36.42706752362908 0.5 8.755812898145159
vertex -36.6 0.5 7
vertex -41.6 0.5 7
endloop
endfacet
facet normal 0 1 0
outer loop
vertex -36.42706752362908 0.5 8.755812898145159
vertex -41.6 0.5 7
vertex -41.6 0.5 8.755812898145159
endloop
endfacet
facet normal 0 1 0
outer loop
vertex 41.6 0.5 8.755812898145159
vertex 41.6 0.5 7
vertex 36.6 0.49999999999999956 7
endloop
endfacet
facet normal 0 1 0
outer loop
vertex 41.6 0.5 8.755812898145159
vertex 36.6 0.49999999999999956 7
vertex 36.42706752362908 0.5 8.755812898145159
endloop
endfacet
facet normal 0 1 0
outer loop
vertex -36.6 0.5 7
vertex -36.6 0.5 1
vertex -41.6 0.5 1
endloop
endfacet
facet normal 0 1 0
outer loop
vertex -36.6 0.5 7
vertex -41.6 0.5 1
vertex -41.6 0.5 7
endloop
endfacet
facet normal 0 1 0
outer loop
vertex 41.6 0.5 7
vertex 41.6 0.5 1
vertex 36.6 0.5 1
endloop
endfacet
facet normal 0 1 0
outer loop
vertex 41.6 0.5 7
vertex 36.6 0.5 1
vertex 36.6 0.49999999999999956 7
endloop
endfacet
facet normal -1 0 0
outer loop
vertex -24.900000000000002 -0.5 22
vertex -24.9 -0.5 16
vertex -24.900000000000002 -9.1 16
endloop
endfacet
facet normal -1 0 0
outer loop
vertex -24.900000000000002 -0.5 22
vertex -24.900000000000002 -9.1 16
vertex -24.900000000000002 -9.1 22
endloop
endfacet
facet normal -1 0 0
outer loop
vertex -24.900000000000002 9.1 22
vertex -24.900000000000002 9.1 16
vertex -24.900000000000002 0.49999999999999956 16
endloop
endfacet
facet normal -1 0 0
outer loop
vertex -24.900000000000002 9.1 22
vertex -24.900000000000002 0.49999999999999956 16
vertex -24.900000000000002 0.5 22
endloop
endfacet
facet normal -1 0 0
outer loop
vertex -24.9 -4.1 16
vertex -24.9 -4.1 1
vertex -24.9 -9.1 1
endloop
endfacet
facet normal -1 0 0
outer loop
vertex -24.9 -4.1 16
vertex -24.9 -9.1 1
vertex -24.900000000000002 -9.1 16
endloop
endfacet
facet normal -1 0 0
outer loop
vertex -24.900000000000002 9.1 16
vertex -24.900000000000002 9.100000000000001 1
vertex -24.900000000000002 4.1 1
endloop
endfacet
facet normal -1 0 0
outer loop
vertex -24.900000000000002 9.1 16
vertex -24.900000000000002 4.1 1
vertex -24.900000000000002 4.1 16
endloop
endfacet
facet normal 1 0 0
outer loop
vertex -23.9 -4.1 1
vertex -23.9 -4.1 16
vertex -23.900000000000002 -9.1 16
endloop
endfacet
facet normal 1 0 0
outer loop
vertex -23.9 -4.1 1
vertex -23.900000000000002 -9.1 16
vertex -23.9 -9.1 1
endloop
endfacet
facet normal 1 0 0
outer loop
vertex -23.900000000000002 9.100000000000001 1
vertex -23.900000000000002 9.1 16
vertex -23.900000000000002 4.1 16
endloop
endfacet
facet normal 1 0 0
outer loop
vertex -23.900000000000002 9.100000000000001 1
vertex -23.900000000000002 4.1 16
vertex -23.900000000000002 4.1 1
endloop
endfacet
facet normal 1 0 0
outer loop
vertex -23.9 -0.5 16
vertex -23.900000000000002 -0.5 22
vertex -23.900000000000002 -9.1 22
endloop
endfacet
facet normal 1 0 0
outer loop
vertex -23.9 -0.5 16
vertex -23.900000000000002 -9.1 22
vertex -23.900000000000002 -9.1 16
endloop
endfacet
facet normal 1 0 0
outer loop
vertex -23.900000000000002 9.1 16
vertex -23.900000000000002 9.1 22
vertex -23.900000000000002 0.5 22
endloop
endfacet
facet normal 1 0 0
outer loop
vertex -23.900000000000002 9.1 16
vertex -23.900000000000002 0.5 22
vertex -23.900000000000002 0.49999999999999956 16
endloop
endfacet
facet normal -1 0 0
outer loop
vertex -0.5 -0.5 22
vertex -0.5000000000000036 -0.5 16
vertex -0.5 -9.1 16
endloop
endfacet
facet normal -1 0 0
outer loop
vertex -0.5 -0.5 22
vertex -0.5 -9.1 16
vertex -0.5 -9.1 22
endloop
endfacet
facet normal -1 0 0
outer loop
vertex -0.5 9.1 22
vertex -0.5 9.1 16
vertex -0.5 0.49999999999999956 16
endloop
endfacet
facet normal -1 0 0
outer loop
vertex -0.5 9.1 22
vertex -0.5 0.49999999999999956 16
vertex -0.5 0.5 22
endloop
endfacet
facet normal -1 0 0
outer loop
vertex -0.5000000000000036 -4.1 16
vertex -0.5 -4.1 1
vertex -0.5 -9.1 1
endloop
endfacet
facet normal -1 0 0
outer loop
vertex -0.5000000000000036 -4.1 16
vertex -0.5 -9.1 1
vertex -0.5 -9.1 16
endloop
endfacet
facet normal -1 0 0
outer loop
vertex -0.5 9.1 16
vertex -0.5 9.100000000000001 1
vertex -0.5 4.1 1
endloop
endfacet
facet normal -1 0 0
outer loop
vertex -0.5 9.1 16
vertex -0.5 4.1 1
vertex -0.5 4.1 16
endloop
endfacet
facet normal 1 0 0
outer loop
vertex 0.49999999999999994 -4.1 1
vertex 0.5 -4.1 16
vertex 0.5 -9.1 16
endloop
endfacet
facet normal 1 0 0
outer loop
vertex 0.49999999999999994 -4.1 1
vertex 0.5 -9.1 16
vertex 0.4999999999999999 -9.1 1
endloop
endfacet
facet normal 1 0 0
outer loop
vertex 0.5 9.100000000000001 1
vertex 0.5 9.1 16
vertex 0.5 4.1 16
endloop
endfacet
facet normal 1 0 0
outer loop
vertex 0.5 9.100000000000001 1
vertex 0.5 4.1 16
vertex 0.5 4.1 1
endloop
endfacet
facet normal 1 0 0
outer loop
vertex 0.5 -0.5 16
vertex 0.5 -0.5 22
vertex 0.5 -9.1 22
endloop
endfacet
facet normal 1 0 0
outer loop
vertex 0.5 -0.5 16
vertex 0.5 -9.1 22
vertex 0.5 -9.1 16
endloop
endfacet
facet normal 1 0 0
outer loop
vertex 0.5 9.1 16
vertex 0.5 9.1 22
vertex 0.5 0.5 22
endloop
endfacet
facet normal 1 0 0
outer loop
vertex 0.5 9.1 16
vertex 0.5 0.5 22
vertex 0.5 0.49999999999999956 16
endloop
endfacet
facet normal -1 0 0
outer loop
vertex 23.900000000000002 -0.5 22
vertex 23.900000000000002 -0.5 16
vertex 23.900000000000002 -9.1 16
endloop
endfacet
facet normal -1 0 0
outer loop
vertex 23.900000000000002 -0.5 22
vertex 23.900000000000002 -9.1 16
vertex 23.900000000000002 -9.1 22
endloop
endfacet
facet normal -1 0 0
outer loop
vertex 23.900000000000002 9.1 22
vertex 23.900000000000002 9.1 16
vertex 23.900000000000002 0.49999999999999956 16
endloop
endfacet
facet normal -1 0 0
outer loop
vertex 23.900000000000002 9.1 22
vertex 23.900000000000002 0.49999999999999956 16
vertex 23.900000000000002 0.5 22
endloop
endfacet
facet normal -1 0 0
outer loop
vertex 23.900000000000002 -4.1 16
vertex 23.900000000000002 -4.1 1
vertex 23.900000000000002 -9.1 1
endloop
endfacet
facet normal -1 0 0
outer loop
vertex 23.900000000000002 -4.1 16
vertex 23.900000000000002 -9.1 1
vertex 23.900000000000002 -9.1 16
endloop
endfacet
facet normal -1 0 0
outer loop
vertex 23.900000000000002 9.1 16
vertex 23.9 9.100000000000001 1
vertex 23.900000000000002 4.1 1
endloop
endfacet
facet normal -1 0 0
outer loop
vertex 23.900000000000002 9.1 16
vertex 23.900000000000002 4.1 1
vertex 23.900000000000002 4.1 16
endloop
endfacet
facet normal 1 0 0
outer loop
vertex 24.900000000000002 -4.1 1
vertex 24.900000000000002 -4.1 16
vertex 24.900000000000002 -9.1 16
endloop
endfacet
facet normal 1 0 0
outer loop
vertex 24.900000000000002 -4.1 1
vertex 24.900000000000002 -9.1 16
vertex 24.900000000000002 -9.1 1
endloop
endfacet
facet normal 1 0 0
outer loop
vertex 24.900000000000002 9.100000000000001 1
vertex 24.900000000000002 9.1 16
vertex 24.900000000000002 4.1 16
endloop
endfacet
facet normal 1 0 0
outer loop
vertex 24.900000000000002 9.100000000000001 1
vertex 24.900000000000002 4.1 16
vertex 24.900000000000002 4.1 1
endloop
endfacet
facet normal 1 0 0
outer loop
vertex 24.900000000000002 -0.5 16
vertex 24.900000000000002 -0.5 22
vertex 24.900000000000002 -9.1 22
endloop
endfacet
facet normal 1 0 0
outer loop
vertex 24.900000000000002 -0.5 16
vertex 24.900000000000002 -9.1 22
vertex 24.900000000000002 -9.1 16
endloop
endfacet
facet normal 1 0 0
outer loop
vertex 24.900000000000002 9.1 16
vertex 24.900000000000002 9.1 22
vertex 24.900000000000002 0.5 22
endloop
endfacet
facet normal 1 0 0
outer loop
vertex 24.900000000000002 9.1 16
vertex 24.900000000000002 0.5 22
vertex 24.900000000000002 0.49999999999999956 16
endloop
endfacet
facet normal -1 0 0
outer loop
vertex -45 -15 0
vertex -45 -15 1
vertex -45.00000000000001 15 1
endloop
endfacet
facet normal -1 0 0
outer loop
vertex -45 -15 0
vertex -45.00000000000001 15 1
vertex -45 15 0
endloop
endfacet
facet normal 1 0 0
outer loop
vertex 45 -15 0
vertex 45 15 0
vertex 45 15 1
endloop
endfacet
facet normal 1 0 0
outer loop
vertex 45 -15 0
vertex 45 15 1
vertex 45 -15 1
endloop
endfacet
facet normal 0 -1 0
outer loop
vertex -45 -15 0
vertex 45 -15 0
vertex 45 -15 1
endloop
endfacet
facet normal 0 -1 0
outer loop
vertex -45 -15 0
vertex 45 -15 1
vertex -45 -15 1
endloop
endfacet
facet normal 0 1 0
outer loop
vertex -45 15 0
vertex -45.00000000000001 15 1
vertex 45 15 1
endloop
endfacet
facet normal 0 1 0
outer loop
vertex -45 15 0
vertex 45 15 1
vertex 45 15 0
endloop
endfacet
facet normal 0 0 -1
outer loop
vertex 45 15 0
vertex 44.99999999999999 4.1 0
vertex -45 4.1 0
endloop
endfacet
facet normal 0 0 -1
outer loop
vertex 45 15 0
vertex -45 4.1 0
vertex -45 15 0
endloop
endfacet
facet normal 0 0 -1
outer loop
vertex -36.6 4.1 0
vertex -36.6 -4.1 0
vertex -45 -4.1 0
endloop
endfacet
facet normal 0 0 -1
outer loop
vertex -36.6 4.1 0
vertex -45 -4.1 0
vertex -45 4.1 0
endloop
endfacet
facet normal 0 0 -1
outer loop
vertex 44.99999999999999 4.1 0
vertex 45 -4.1 0
vertex 36.6 -4.1 0
endloop
endfacet
facet normal 0 0 -1
outer loop
vertex 44.99999999999999 4.1 0
vertex 36.6 -4.1 0
vertex 36.6 4.1 0
endloop
endfacet
facet normal 0 0 -1
outer loop
vertex 45 -4.1 0
vertex 45 -15 0
vertex -45 -15 0
endloop
endfacet
facet normal 0 0 -1
outer loop
vertex 45 -4.1 0
vertex -45 -15 0
vertex -45 -4.1 0
endloop
endfacet
endsolid csg.js
